<svg width="150" height="153" viewBox="0 0 150 153" fill="none" xmlns="http://www.w3.org/2000/svg">
<g clip-path="url(#clip0_938_2)">
<path d="M107.506 84.2852H101.615V90.198H107.506V84.2852Z" fill="#050403"/>
<path d="M101.615 95.832H95.7241V101.745H101.615V95.832Z" fill="#050403"/>
<path d="M52.0797 89.918H46.1885V95.8308H52.0797V89.918Z" fill="#050403"/>
<path d="M49.6744 84.2852H43.7832V90.198H49.6744V84.2852Z" fill="#050403"/>
<path d="M104.544 78.3711H98.6523V84.284H104.544V78.3711Z" fill="#050403"/>
<path d="M52.0797 78.3711H46.1885V84.284H52.0797V78.3711Z" fill="#050403"/>
<path d="M101.615 72.457H95.7241V78.3699H101.615V72.457Z" fill="#050403"/>
<path d="M86.7653 126.34H80.874V132.253H86.7653V126.34Z" fill="#050403"/>
<path d="M54.4503 72.457H48.5591V78.3699H54.4503V72.457Z" fill="#050403"/>
<path d="M57.6574 66.5469H51.7661V72.4597H57.6574V66.5469Z" fill="#050403"/>
<path d="M95.7238 60.6328H89.8325V66.5457H95.7238V60.6328Z" fill="#050403"/>
<path d="M78.0153 60.6328H72.124V66.5457H78.0153V60.6328Z" fill="#050403"/>
<path d="M60.3414 60.6328H54.4502V66.5457H60.3414V60.6328Z" fill="#050403"/>
<path d="M92.691 54.7188H86.7998V60.6316H92.691V54.7188Z" fill="#050403"/>
<path d="M78.0153 54.7188H72.124V60.6316H78.0153V54.7188Z" fill="#050403"/>
<path d="M63.5485 54.7188H57.6572V60.6316H63.5485V54.7188Z" fill="#050403"/>
<path d="M89.8326 48.8086H83.9414V54.7215H89.8326V48.8086Z" fill="#050403"/>
<path d="M78.0153 48.8086H72.124V54.7215H78.0153V48.8086Z" fill="#050403"/>
<path d="M66.233 48.8086H60.3418V54.7215H66.233V48.8086Z" fill="#050403"/>
<path d="M87.0089 42.8945H81.1177V48.8074H87.0089V42.8945Z" fill="#050403"/>
<path d="M78.0153 42.8945H72.124V48.8074H78.0153V42.8945Z" fill="#050403"/>
<path d="M69.1959 42.8945H63.3047V48.8074H69.1959V42.8945Z" fill="#050403"/>
<path d="M83.9415 36.9805H78.0503V42.8933H83.9415V36.9805Z" fill="#050403"/>
<path d="M78.0153 36.9805H72.124V42.8933H78.0153V36.9805Z" fill="#050403"/>
<path d="M72.1242 36.9805H66.2329V42.8933H72.1242V36.9805Z" fill="#050403"/>
<path d="M72.2633 69.6602H66.3721V75.573H72.2633V69.6602Z" fill="#050403"/>
<path d="M72.2633 75.5742H66.3721V81.4871H72.2633V75.5742Z" fill="#050403"/>
<path d="M83.6974 81.4844H77.8062V87.3972H83.6974V81.4844Z" fill="#050403"/>
<path d="M78.0153 81.4844H72.124V87.3972H78.0153V81.4844Z" fill="#050403"/>
<path d="M72.2633 81.4844H66.3721V87.3972H72.2633V81.4844Z" fill="#050403"/>
<path d="M83.6974 75.5742H77.8062V81.4871H83.6974V75.5742Z" fill="#050403"/>
<path d="M83.6974 69.6602H77.8062V75.573H83.6974V69.6602Z" fill="#050403"/>
<path d="M78.0153 69.6602H72.124V75.573H78.0153V69.6602Z" fill="#050403"/>
<path d="M66.233 101.742H60.3418V107.655H66.233V101.742Z" fill="#050403"/>
<path d="M55.0431 95.832H49.1519V101.745H55.0431V95.832Z" fill="#050403"/>
<path d="M104.753 89.918H98.8613V95.8308H104.753V89.918Z" fill="#050403"/>
<path d="M60.9342 98.4883H55.043V104.401H60.9342V98.4883Z" fill="#050403"/>
<path d="M87.0089 107.34H81.1177V113.253H87.0089V107.34Z" fill="#050403"/>
<path d="M89.8326 101.43H83.9414V107.343H89.8326V101.43Z" fill="#050403"/>
<path d="M69.4401 107.656H63.5488V113.569H69.4401V107.656Z" fill="#050403"/>
<path d="M60.3414 116.367H54.4502V122.28H60.3414V116.367Z" fill="#050403"/>
<path d="M69.3004 126.34H63.4092V132.253H69.3004V126.34Z" fill="#050403"/>
<path d="M66.233 116.367H60.3418V122.28H66.233V116.367Z" fill="#050403"/>
<path d="M72.1242 116.367H66.2329V122.28H72.1242V116.367Z" fill="#050403"/>
<path d="M78.0153 116.367H72.124V122.28H78.0153V116.367Z" fill="#050403"/>
<path d="M83.9415 116.367H78.0503V122.28H83.9415V116.367Z" fill="#050403"/>
<path d="M89.8326 116.367H83.9414V122.28H89.8326V116.367Z" fill="#050403"/>
<path d="M95.7238 116.367H89.8325V122.28H95.7238V116.367Z" fill="#050403"/>
<path d="M72.1242 122.281H66.2329V128.194H72.1242V122.281Z" fill="#050403"/>
<path d="M60.3414 122.281H54.4502V128.194H60.3414V122.281Z" fill="#050403"/>
<path d="M66.233 122.281H60.3418V128.194H66.233V122.281Z" fill="#050403"/>
<path d="M83.9415 122.281H78.0503V128.194H83.9415V122.281Z" fill="#050403"/>
<path d="M78.0153 122.281H72.124V128.194H78.0153V122.281Z" fill="#050403"/>
<path d="M95.7238 122.281H89.8325V128.194H95.7238V122.281Z" fill="#050403"/>
<path d="M89.8326 122.281H83.9414V128.194H89.8326V122.281Z" fill="#050403"/>
<path d="M98.8615 66.5469H92.9702V72.4597H98.8615V66.5469Z" fill="#050403"/>
<path d="M78.1549 87.1172H72.2637V93.0301H78.1549V87.1172Z" fill="#050403"/>
<path d="M95.6544 98.4883H89.7632V104.401H95.6544V98.4883Z" fill="#050403"/>
<path d="M78.0153 66.5469H72.124V72.4597H78.0153V66.5469Z" fill="#050403"/>
<path d="M78.0153 31.9766H72.124V37.8894H78.0153V31.9766Z" fill="#050403"/>
<path d="M3.55566 0.175781H0V3.7445H3.55566V0.175781Z" fill="#050403"/>
<path d="M3.55566 3.70703H0V7.27575H3.55566V3.70703Z" fill="#050403"/>
<path d="M3.55566 7.27734H0V10.8461H3.55566V7.27734Z" fill="#050403"/>
<path d="M10.667 0.175781H7.11133V3.7445H10.667V0.175781Z" fill="#050403"/>
<path d="M10.667 3.70703H7.11133V7.27575H10.667V3.70703Z" fill="#050403"/>
<path d="M10.667 7.27734H7.11133V10.8461H10.667V7.27734Z" fill="#050403"/>
<path d="M7.11132 7.27734H3.55566V10.8461H7.11132V7.27734Z" fill="#050403"/>
<path d="M7.11132 0.175781H3.55566V3.7445H7.11132V0.175781Z" fill="#050403"/>
<path d="M26.0747 3.60547H22.519V7.17419H26.0747V3.60547Z" fill="#050403"/>
<path d="M29.6304 3.60547H26.0747V7.17419H29.6304V3.60547Z" fill="#050403"/>
<path d="M33.1162 3.60547H29.5605V7.17419H33.1162V3.60547Z" fill="#050403"/>
<path d="M36.6025 3.60547H33.0469V7.17419H36.6025V3.60547Z" fill="#050403"/>
<path d="M40.1582 3.60547H36.6025V7.17419H40.1582V3.60547Z" fill="#050403"/>
<path d="M43.5742 3.60547H40.0186V7.17419H43.5742V3.60547Z" fill="#050403"/>
<path d="M47.1299 3.60547H43.5742V7.17419H47.1299V3.60547Z" fill="#050403"/>
<path d="M50.6157 3.60547H47.0601V7.17419H50.6157V3.60547Z" fill="#050403"/>
<path d="M54.1016 3.60547H50.5459V7.17419H54.1016V3.60547Z" fill="#050403"/>
<path d="M57.6572 3.60547H54.1016V7.17419H57.6572V3.60547Z" fill="#050403"/>
<path d="M76.8301 0H73.2744V3.56872H76.8301V0Z" fill="#050403"/>
<path d="M76.8301 3.57031H73.2744V7.13903H76.8301V3.57031Z" fill="#050403"/>
<path d="M76.8301 7.13672H73.2744V10.7054H76.8301V7.13672Z" fill="#050403"/>
<path d="M76.8301 3.57031H73.2744V7.13903H76.8301V3.57031Z" fill="#050403"/>
<path d="M73.3096 3.57031H69.7539V7.13903H73.3096V3.57031Z" fill="#050403"/>
<path d="M80.4204 3.57031H76.8647V7.13903H80.4204V3.57031Z" fill="#050403"/>
<path d="M96.2466 3.60547H92.6909V7.17419H96.2466V3.60547Z" fill="#050403"/>
<path d="M99.8022 3.60547H96.2466V7.17419H99.8022V3.60547Z" fill="#050403"/>
<path d="M103.289 3.60547H99.7329V7.17419H103.289V3.60547Z" fill="#050403"/>
<path d="M106.774 3.60547H103.219V7.17419H106.774V3.60547Z" fill="#050403"/>
<path d="M110.33 3.60547H106.774V7.17419H110.33V3.60547Z" fill="#050403"/>
<path d="M113.746 3.60547H110.19V7.17419H113.746V3.60547Z" fill="#050403"/>
<path d="M117.302 3.60547H113.746V7.17419H117.302V3.60547Z" fill="#050403"/>
<path d="M120.788 3.60547H117.232V7.17419H120.788V3.60547Z" fill="#050403"/>
<path d="M124.274 3.60547H120.718V7.17419H124.274V3.60547Z" fill="#050403"/>
<path d="M127.83 3.60547H124.274V7.17419H127.83V3.60547Z" fill="#050403"/>
<path d="M142.923 3.71094H139.368V7.27965H142.923V3.71094Z" fill="#050403"/>
<path d="M150 3.71094H146.444V7.27965H150V3.71094Z" fill="#050403"/>
<path d="M146.444 7.27734H142.889V10.8461H146.444V7.27734Z" fill="#050403"/>
<path d="M142.923 7.27734H139.368V10.8461H142.923V7.27734Z" fill="#050403"/>
<path d="M146.444 0.175781H142.889V3.7445H146.444V0.175781Z" fill="#050403"/>
<path d="M142.923 0.175781H139.368V3.7445H142.923V0.175781Z" fill="#050403"/>
<path d="M150 7.27734H146.444V10.8461H150V7.27734Z" fill="#050403"/>
<path d="M150 0.175781H146.444V3.7445H150V0.175781Z" fill="#050403"/>
<path d="M7.11132 71.4102H3.55566V74.9789H7.11132V71.4102Z" fill="#050403"/>
<path d="M7.11132 74.9805H3.55566V78.5492H7.11132V74.9805Z" fill="#050403"/>
<path d="M7.11132 78.5469H3.55566V82.1156H7.11132V78.5469Z" fill="#050403"/>
<path d="M7.11132 74.9805H3.55566V78.5492H7.11132V74.9805Z" fill="#050403"/>
<path d="M3.55566 74.9805H0V78.5492H3.55566V74.9805Z" fill="#050403"/>
<path d="M10.667 74.9805H7.11133V78.5492H10.667V74.9805Z" fill="#050403"/>
<path d="M146.444 71.4102H142.889V74.9789H146.444V71.4102Z" fill="#050403"/>
<path d="M146.444 74.9805H142.889V78.5492H146.444V74.9805Z" fill="#050403"/>
<path d="M146.444 78.5469H142.889V82.1156H146.444V78.5469Z" fill="#050403"/>
<path d="M142.923 74.9805H139.368V78.5492H142.923V74.9805Z" fill="#050403"/>
<path d="M150 74.9805H146.444V78.5492H150V74.9805Z" fill="#050403"/>
<path d="M146.444 23.0234H142.889V26.5922H146.444V23.0234Z" fill="#050403"/>
<path d="M146.444 26.5898H142.889V30.1586H146.444V26.5898Z" fill="#050403"/>
<path d="M146.444 30.0898H142.889V33.6586H146.444V30.0898Z" fill="#050403"/>
<path d="M146.444 33.5898H142.889V37.1586H146.444V33.5898Z" fill="#050403"/>
<path d="M146.444 37.1562H142.889V40.725H146.444V37.1562Z" fill="#050403"/>
<path d="M146.444 40.5859H142.889V44.1547H146.444V40.5859Z" fill="#050403"/>
<path d="M146.444 44.1523H142.889V47.7211H146.444V44.1523Z" fill="#050403"/>
<path d="M146.444 47.6523H142.889V51.2211H146.444V47.6523Z" fill="#050403"/>
<path d="M146.444 51.1523H142.889V54.7211H146.444V51.1523Z" fill="#050403"/>
<path d="M146.444 54.7188H142.889V58.2875H146.444V54.7188Z" fill="#050403"/>
<path d="M7.11132 23.0898H3.55566V26.6586H7.11132V23.0898Z" fill="#050403"/>
<path d="M7.11132 26.6602H3.55566V30.2289H7.11132V26.6602Z" fill="#050403"/>
<path d="M7.11132 30.1602H3.55566V33.7289H7.11132V30.1602Z" fill="#050403"/>
<path d="M7.11132 33.6562H3.55566V37.225H7.11132V33.6562Z" fill="#050403"/>
<path d="M7.11132 37.2266H3.55566V40.7953H7.11132V37.2266Z" fill="#050403"/>
<path d="M7.11132 40.6562H3.55566V44.225H7.11132V40.6562Z" fill="#050403"/>
<path d="M7.11132 44.2227H3.55566V47.7914H7.11132V44.2227Z" fill="#050403"/>
<path d="M7.11132 47.7227H3.55566V51.2914H7.11132V47.7227Z" fill="#050403"/>
<path d="M7.11132 51.2227H3.55566V54.7914H7.11132V51.2227Z" fill="#050403"/>
<path d="M7.11132 54.7891H3.55566V58.3578H7.11132V54.7891Z" fill="#050403"/>
<path d="M146.619 95.2344H143.063V98.8031H146.619V95.2344Z" fill="#050403"/>
<path d="M146.619 98.8047H143.063V102.373H146.619V98.8047Z" fill="#050403"/>
<path d="M146.619 102.305H143.063V105.873H146.619V102.305Z" fill="#050403"/>
<path d="M146.619 105.801H143.063V109.369H146.619V105.801Z" fill="#050403"/>
<path d="M146.619 109.371H143.063V112.94H146.619V109.371Z" fill="#050403"/>
<path d="M146.619 112.801H143.063V116.369H146.619V112.801Z" fill="#050403"/>
<path d="M146.619 116.367H143.063V119.936H146.619V116.367Z" fill="#050403"/>
<path d="M146.619 119.867H143.063V123.436H146.619V119.867Z" fill="#050403"/>
<path d="M146.619 123.367H143.063V126.936H146.619V123.367Z" fill="#050403"/>
<path d="M146.619 126.934H143.063V130.502H146.619V126.934Z" fill="#050403"/>
<path d="M142.923 142.293H139.368V145.862H142.923V142.293Z" fill="#050403"/>
<path d="M142.923 145.863H139.368V149.432H142.923V145.863Z" fill="#050403"/>
<path d="M142.923 149.43H139.368V152.998H142.923V149.43Z" fill="#050403"/>
<path d="M150 142.293H146.444V145.862H150V142.293Z" fill="#050403"/>
<path d="M150 145.863H146.444V149.432H150V145.863Z" fill="#050403"/>
<path d="M150 149.43H146.444V152.998H150V149.43Z" fill="#050403"/>
<path d="M146.444 149.43H142.889V152.998H146.444V149.43Z" fill="#050403"/>
<path d="M146.444 142.293H142.889V145.862H146.444V142.293Z" fill="#050403"/>
<path d="M7.11132 95.2344H3.55566V98.8031H7.11132V95.2344Z" fill="#050403"/>
<path d="M7.11132 98.8047H3.55566V102.373H7.11132V98.8047Z" fill="#050403"/>
<path d="M7.11132 102.305H3.55566V105.873H7.11132V102.305Z" fill="#050403"/>
<path d="M7.11132 105.801H3.55566V109.369H7.11132V105.801Z" fill="#050403"/>
<path d="M7.11132 109.371H3.55566V112.94H7.11132V109.371Z" fill="#050403"/>
<path d="M7.11132 112.801H3.55566V116.369H7.11132V112.801Z" fill="#050403"/>
<path d="M7.11132 116.367H3.55566V119.936H7.11132V116.367Z" fill="#050403"/>
<path d="M7.11132 119.867H3.55566V123.436H7.11132V119.867Z" fill="#050403"/>
<path d="M7.11132 123.367H3.55566V126.936H7.11132V123.367Z" fill="#050403"/>
<path d="M7.11132 126.934H3.55566V130.502H7.11132V126.934Z" fill="#050403"/>
<path d="M3.69482 142.293H0.13916V145.862H3.69482V142.293Z" fill="#050403"/>
<path d="M3.69482 145.863H0.13916V149.432H3.69482V145.863Z" fill="#050403"/>
<path d="M3.66015 149.43H0.104492V152.998H3.66015V149.43Z" fill="#050403"/>
<path d="M10.667 142.293H7.11133V145.862H10.667V142.293Z" fill="#050403"/>
<path d="M10.667 145.863H7.11133V149.432H10.667V145.863Z" fill="#050403"/>
<path d="M10.667 149.43H7.11133V152.998H10.667V149.43Z" fill="#050403"/>
<path d="M7.11132 149.43H3.55566V152.998H7.11132V149.43Z" fill="#050403"/>
<path d="M7.11132 142.293H3.55566V145.862H7.11132V142.293Z" fill="#050403"/>
<path d="M26.0747 145.898H22.519V149.467H26.0747V145.898Z" fill="#050403"/>
<path d="M29.6304 145.898H26.0747V149.467H29.6304V145.898Z" fill="#050403"/>
<path d="M33.1162 145.898H29.5605V149.467H33.1162V145.898Z" fill="#050403"/>
<path d="M36.6025 145.898H33.0469V149.467H36.6025V145.898Z" fill="#050403"/>
<path d="M40.1582 145.898H36.6025V149.467H40.1582V145.898Z" fill="#050403"/>
<path d="M110.33 145.898H106.774V149.467H110.33V145.898Z" fill="#050403"/>
<path d="M113.746 145.898H110.19V149.467H113.746V145.898Z" fill="#050403"/>
<path d="M117.302 145.898H113.746V149.467H117.302V145.898Z" fill="#050403"/>
<path d="M120.788 145.898H117.232V149.467H120.788V145.898Z" fill="#050403"/>
<path d="M124.274 145.898H120.718V149.467H124.274V145.898Z" fill="#050403"/>
<path d="M127.83 145.898H124.274V149.467H127.83V145.898Z" fill="#050403"/>
<path d="M43.7139 145.898H40.1582V149.467H43.7139V145.898Z" fill="#050403"/>
<path d="M47.2695 145.898H43.7139V149.467H47.2695V145.898Z" fill="#050403"/>
<path d="M50.7554 145.898H47.1997V149.467H50.7554V145.898Z" fill="#050403"/>
<path d="M54.2412 145.898H50.6855V149.467H54.2412V145.898Z" fill="#050403"/>
<path d="M57.7622 145.898H54.2065V149.467H57.7622V145.898Z" fill="#050403"/>
<path d="M61.1436 145.898H57.5879V149.467H61.1436V145.898Z" fill="#050403"/>
<path d="M64.6992 145.898H61.1436V149.467H64.6992V145.898Z" fill="#050403"/>
<path d="M68.185 145.898H64.6294V149.467H68.185V145.898Z" fill="#050403"/>
<path d="M71.6709 145.898H68.1152V149.467H71.6709V145.898Z" fill="#050403"/>
<path d="M75.2266 145.898H71.6709V149.467H75.2266V145.898Z" fill="#050403"/>
<path d="M78.7822 145.898H75.2266V149.467H78.7822V145.898Z" fill="#050403"/>
<path d="M82.3379 145.898H78.7822V149.467H82.3379V145.898Z" fill="#050403"/>
<path d="M85.8237 145.898H82.2681V149.467H85.8237V145.898Z" fill="#050403"/>
<path d="M89.3096 145.898H85.7539V149.467H89.3096V145.898Z" fill="#050403"/>
<path d="M92.8652 145.898H89.3096V149.467H92.8652V145.898Z" fill="#050403"/>
<path d="M92.7261 145.898H96.2817V149.467H92.7261" fill="#050403"/>
<path d="M99.7676 145.898H96.2119V149.467H99.7676V145.898Z" fill="#050403"/>
<path d="M103.323 145.898H99.7676V149.467H103.323V145.898Z" fill="#050403"/>
<path d="M106.879 145.898H103.323V149.467H106.879V145.898Z" fill="#050403"/>
</g>
<defs>
<clipPath id="clip0_938_2">
<rect width="150" height="153" fill="white"/>
</clipPath>
</defs>
</svg>
