<svg width="150" height="109" viewBox="0 0 150 109" fill="none" xmlns="http://www.w3.org/2000/svg">
<path d="M80.8281 108.25H6.97754V103.803H80.8281V108.25ZM145.482 103.925H143.345V108.25H136.287V103.803H142.982V101.418H145.482V103.925ZM6.9375 103.803H4.43652V101.297H6.9375V103.803ZM142.982 5.29492H127.857V17.9473H145.482V7.8418H149.96V98.75L147.983 101.257H145.482V20.4531H4.35645V101.297H0V7.8418H4.35645V17.9072H85.0225V5.29492H6.89746V7.80176H4.39648V5.29492H6.89746V0H142.982V5.29492ZM87.5234 17.9473H102.648V17.9072H105.149V5.29492H87.5234V17.9473ZM107.69 17.9473H122.815V17.9072H125.316V5.29492H107.69V17.9473ZM100.107 15.4004H92.5654V12.8945H100.107V15.4004ZM120.274 15.4004H112.731V7.8418H120.274V15.4004ZM135.399 15.4004H132.898V12.8945H135.399V15.4004ZM140.441 15.4004H137.94V12.8945H140.441V15.4004ZM115.272 12.8945H117.773V10.3887H115.272V12.8945ZM137.9 12.8545H135.399V10.3477H137.9V12.8545ZM135.399 10.3477H132.898V7.8418H135.399V10.3477ZM140.441 10.3477H137.94V7.8418H140.441V10.3477ZM145.482 7.80176H142.982V5.29492H145.482V7.80176Z" fill="black"/>
<g clip-path="url(#clip0_1225_1810)">
<path d="M83.5714 88.7148H79.2856V93.0006H83.5714V88.7148Z" fill="#171717"/>
<path d="M79.2857 88.7148H75V93.0006H79.2857V88.7148Z" fill="#171717"/>
<path d="M75.0001 88.7148H70.7144V93.0006H75.0001V88.7148Z" fill="#171717"/>
<path d="M70.7144 88.7148H66.4287V93.0006H70.7144V88.7148Z" fill="#171717"/>
<path d="M92.1426 84.4297H87.8569V88.7154H92.1426V84.4297Z" fill="#171717"/>
<path d="M87.857 84.4297H83.5713V88.7154H87.857V84.4297Z" fill="#171717"/>
<path d="M66.4288 84.4297H62.1431V88.7154H66.4288V84.4297Z" fill="#171717"/>
<path d="M62.1426 84.4297H57.8569V88.7154H62.1426V84.4297Z" fill="#171717"/>
<path d="M96.4288 80.1445H92.1431V84.4302H96.4288V80.1445Z" fill="#171717"/>
<path d="M57.857 80.1445H53.5713V84.4302H57.857V80.1445Z" fill="#171717"/>
<path d="M100.714 75.8555H96.4287V80.1412H100.714V75.8555Z" fill="#171717"/>
<path d="M53.5714 75.8555H49.2856V80.1412H53.5714V75.8555Z" fill="#171717"/>
<path d="M100.714 71.5703H96.4287V75.856H100.714V71.5703Z" fill="#171717"/>
<path d="M53.5714 71.5703H49.2856V75.856H53.5714V71.5703Z" fill="#171717"/>
<path d="M105 67.2852H100.714V71.5709H105V67.2852Z" fill="#171717"/>
<path d="M83.5714 67.2852H79.2856V71.5709H83.5714V67.2852Z" fill="#171717"/>
<path d="M79.2857 67.2852H75V71.5709H79.2857V67.2852Z" fill="#171717"/>
<path d="M75.0001 67.2852H70.7144V71.5709H75.0001V67.2852Z" fill="#171717"/>
<path d="M70.7144 67.2852H66.4287V71.5709H70.7144V67.2852Z" fill="#171717"/>
<path d="M49.2857 67.2852H45V71.5709H49.2857V67.2852Z" fill="#171717"/>
<path d="M105 63H100.714V67.2857H105V63Z" fill="#171717"/>
<path d="M87.857 63H83.5713V67.2857H87.857V63Z" fill="#171717"/>
<path d="M66.4288 63H62.1431V67.2857H66.4288V63Z" fill="#171717"/>
<path d="M49.2857 63H45V67.2857H49.2857V63Z" fill="#171717"/>
<path d="M105 58.7148H100.714V63.0006H105V58.7148Z" fill="#171717"/>
<path d="M49.2857 58.7148H45V63.0006H49.2857V58.7148Z" fill="#171717"/>
<path d="M105 54.4297H100.714V58.7154H105V54.4297Z" fill="#171717"/>
<path d="M87.857 54.4297H83.5713V58.7154H87.857V54.4297Z" fill="#171717"/>
<path d="M66.4288 54.4297H62.1431V58.7154H66.4288V54.4297Z" fill="#171717"/>
<path d="M49.2857 54.4297H45V58.7154H49.2857V54.4297Z" fill="#171717"/>
<path d="M100.714 50.1445H96.4287V54.4302H100.714V50.1445Z" fill="#171717"/>
<path d="M87.857 50.1445H83.5713V54.4302H87.857V50.1445Z" fill="black"/>
<path d="M66.4288 50.1445H62.1431V54.4302H66.4288V50.1445Z" fill="black"/>
<path d="M53.5714 50.1445H49.2856V54.4302H53.5714V50.1445Z" fill="#171717"/>
<path d="M100.714 45.8555H96.4287V50.1412H100.714V45.8555Z" fill="#171717"/>
<path d="M53.5714 45.8555H49.2856V50.1412H53.5714V45.8555Z" fill="#171717"/>
<path d="M96.4288 41.5703H92.1431V45.856H96.4288V41.5703Z" fill="#171717"/>
<path d="M57.857 41.5703H53.5713V45.856H57.857V41.5703Z" fill="#171717"/>
<path d="M92.1426 37.2852H87.8569V41.5709H92.1426V37.2852Z" fill="#171717"/>
<path d="M87.857 37.2852H83.5713V41.5709H87.857V37.2852Z" fill="#171717"/>
<path d="M66.4288 37.2852H62.1431V41.5709H66.4288V37.2852Z" fill="#171717"/>
<path d="M62.1426 37.2852H57.8569V41.5709H62.1426V37.2852Z" fill="#171717"/>
<path d="M83.5714 33H79.2856V37.2857H83.5714V33Z" fill="#171717"/>
<path d="M79.2857 33H75V37.2857H79.2857V33Z" fill="#171717"/>
<path d="M75.0001 33H70.7144V37.2857H75.0001V33Z" fill="#171717"/>
<path d="M70.7144 33H66.4287V37.2857H70.7144V33Z" fill="#171717"/>
</g>
<rect x="78" y="104" width="60" height="4" fill="black"/>
<defs>
<clipPath id="clip0_1225_1810">
<rect width="60" height="60" fill="white" transform="translate(45 33)"/>
</clipPath>
</defs>
</svg>
