<svg width="140" height="146" viewBox="0 0 140 146" fill="none" xmlns="http://www.w3.org/2000/svg">
<g clip-path="url(#clip0_939_259)">
<path d="M105.696 28.4727H101.182V32.9929H105.696V28.4727Z" fill="black"/>
<path d="M110.211 28.4727H105.696V32.9929H110.211V28.4727Z" fill="black"/>
<path d="M9.02942 37.6836H4.51465V42.2038H9.02942V37.6836Z" fill="black"/>
<path d="M13.5865 37.6836H9.07178V42.2038H13.5865V37.6836Z" fill="black"/>
<path d="M18.1012 37.6836H13.5864V42.2038H18.1012V37.6836Z" fill="black"/>
<path d="M22.6158 37.6836H18.1011V42.2038H22.6158V37.6836Z" fill="black"/>
<path d="M27.131 37.6836H22.6162V42.2038H27.131V37.6836Z" fill="black"/>
<path d="M101.139 33.0352H96.6245V37.5554H101.139V33.0352Z" fill="black"/>
<path d="M105.696 33.0352H101.182V37.5554H105.696V33.0352Z" fill="black"/>
<path d="M110.211 33.0352H105.696V37.5554H110.211V33.0352Z" fill="black"/>
<path d="M114.726 33.0352H110.211V37.5554H114.726V33.0352Z" fill="black"/>
<path d="M4.51477 46.7656H0V51.2859H4.51477V46.7656Z" fill="black"/>
<path d="M96.6246 37.5547H92.1099V42.0749H96.6246V37.5547Z" fill="black"/>
<path d="M105.696 37.5547H101.182V42.0749H105.696V37.5547Z" fill="black"/>
<path d="M110.211 37.5547H105.696V42.0749H110.211V37.5547Z" fill="black"/>
<path d="M114.726 37.5547H110.211V42.0749H114.726V37.5547Z" fill="black"/>
<path d="M4.51477 51.2852H0V55.8054H4.51477V51.2852Z" fill="black"/>
<path d="M92.1095 42.0742H87.5947V46.5945H92.1095V42.0742Z" fill="black"/>
<path d="M110.211 42.0742H105.696V46.5945H110.211V42.0742Z" fill="black"/>
<path d="M4.51477 55.8047H0V60.3249H4.51477V55.8047Z" fill="black"/>
<path d="M87.5948 46.5977H83.0801V51.1179H87.5948V46.5977Z" fill="black"/>
<path d="M105.696 46.5977H101.182V51.1179H105.696V46.5977Z" fill="black"/>
<path d="M4.51477 60.3242H0V64.8445H4.51477V60.3242Z" fill="black"/>
<path d="M73.671 59.9453H69.1562V64.4656H73.671V59.9453Z" fill="black"/>
<path d="M101.139 51.1602H96.6245V55.6804H101.139V51.1602Z" fill="black"/>
<path d="M4.51477 64.8867H0V69.407H4.51477V64.8867Z" fill="black"/>
<path d="M73.671 64.4648H69.1562V68.9851H73.671V64.4648Z" fill="black"/>
<path d="M78.1857 64.4648H73.6709V68.9851H78.1857V64.4648Z" fill="black"/>
<path d="M96.6246 55.6797H92.1099V60.1999H96.6246V55.6797Z" fill="black"/>
<path d="M4.51477 69.4102H0V73.9304H4.51477V69.4102Z" fill="black"/>
<path d="M73.671 68.9844H69.1562V73.5046H73.671V68.9844Z" fill="black"/>
<path d="M78.1857 68.9844H73.6709V73.5046H78.1857V68.9844Z" fill="black"/>
<path d="M82.7428 68.9844H78.228V73.5046H82.7428V68.9844Z" fill="black"/>
<path d="M4.51477 73.9297H0V78.4499H4.51477V73.9297Z" fill="black"/>
<path d="M4.51477 78.4492H0V82.9695H4.51477V78.4492Z" fill="black"/>
<path d="M9.02942 141.48H4.51465V146.001H9.02942V141.48Z" fill="black"/>
<path d="M13.5865 141.48H9.07178V146.001H13.5865V141.48Z" fill="black"/>
<path d="M18.1012 141.48H13.5864V146.001H18.1012V141.48Z" fill="black"/>
<path d="M22.6158 141.48H18.1011V146.001H22.6158V141.48Z" fill="black"/>
<path d="M27.131 141.48H22.6162V146.001H27.131V141.48Z" fill="black"/>
<path d="M31.6876 141.48H27.1729V146.001H31.6876V141.48Z" fill="black"/>
<path d="M36.2028 141.48H31.688V146.001H36.2028V141.48Z" fill="black"/>
<path d="M40.7174 141.48H36.2026V146.001H40.7174V141.48Z" fill="black"/>
<path d="M31.6876 37.6836H27.1729V42.2038H31.6876V37.6836Z" fill="black"/>
<path d="M36.2028 37.6836H31.688V42.2038H36.2028V37.6836Z" fill="black"/>
<path d="M40.7174 37.6836H36.2026V42.2038H40.7174V37.6836Z" fill="black"/>
<path d="M45.2321 37.6836H40.7173V42.2038H45.2321V37.6836Z" fill="black"/>
<path d="M45.2321 141.48H40.7173V146.001H45.2321V141.48Z" fill="black"/>
<path d="M49.7892 141.48H45.2744V146.001H49.7892V141.48Z" fill="black"/>
<path d="M54.3038 141.48H49.7891V146.001H54.3038V141.48Z" fill="black"/>
<path d="M58.8185 141.48H54.3037V146.001H58.8185V141.48Z" fill="black"/>
<path d="M63.3756 141.48H58.8608V146.001H63.3756V141.48Z" fill="black"/>
<path d="M67.8903 141.48H63.3755V146.001H67.8903V141.48Z" fill="black"/>
<path d="M72.4049 141.48H67.8901V146.001H72.4049V141.48Z" fill="black"/>
<path d="M76.92 141.48H72.4053V146.001H76.92V141.48Z" fill="black"/>
<path d="M81.4767 141.48H76.9619V146.001H81.4767V141.48Z" fill="black"/>
<path d="M85.9913 141.48H81.4766V146.001H85.9913V141.48Z" fill="black"/>
<path d="M90.5065 141.48H85.9917V146.001H90.5065V141.48Z" fill="black"/>
<path d="M95.0211 141.48H90.5063V146.001H95.0211V141.48Z" fill="black"/>
<path d="M99.5782 141.48H95.0635V146.001H99.5782V141.48Z" fill="black"/>
<path d="M104.093 141.48H99.5781V146.001H104.093V141.48Z" fill="black"/>
<path d="M108.608 141.48H104.093V146.001H108.608V141.48Z" fill="black"/>
<path d="M113.122 141.48H108.607V146.001H113.122V141.48Z" fill="black"/>
<path d="M83.0382 51.1602H78.5234V55.6804H83.0382V51.1602Z" fill="black"/>
<path d="M92.1095 60.1992H87.5947V64.7195H92.1095V60.1992Z" fill="black"/>
<path d="M78.5231 55.6797H74.0083V60.1999H78.5231V55.6797Z" fill="black"/>
<path d="M87.5948 64.7188H83.0801V69.239H87.5948V64.7188Z" fill="black"/>
<path d="M4.51477 82.7578H0V87.2781H4.51477V82.7578Z" fill="black"/>
<path d="M4.51477 87.2773H0V91.7976H4.51477V87.2773Z" fill="black"/>
<path d="M4.51477 91.7969H0V96.3171H4.51477V91.7969Z" fill="black"/>
<path d="M4.51477 96.3203H0V100.841H4.51477V96.3203Z" fill="black"/>
<path d="M4.51477 100.883H0V105.403H4.51477V100.883Z" fill="black"/>
<path d="M4.51477 105.402H0V109.923H4.51477V105.402Z" fill="black"/>
<path d="M4.51477 109.922H0V114.442H4.51477V109.922Z" fill="black"/>
<path d="M4.51477 114.484H0V119.005H4.51477V114.484Z" fill="black"/>
<path d="M4.51477 118.922H0V123.442H4.51477V118.922Z" fill="black"/>
<path d="M4.51477 123.484H0V128.005H4.51477V123.484Z" fill="black"/>
<path d="M4.51477 128.004H0V132.524H4.51477V128.004Z" fill="black"/>
<path d="M4.51477 132.523H0V137.044H4.51477V132.523Z" fill="black"/>
<path d="M4.51477 137.043H0V141.563H4.51477V137.043Z" fill="black"/>
<path d="M4.51477 141.48H0V146.001H4.51477V141.48Z" fill="black"/>
<path d="M4.51477 42.2031H0V46.7234H4.51477V42.2031Z" fill="black"/>
<path d="M4.51477 37.6836H0V42.2038H4.51477V37.6836Z" fill="black"/>
<path d="M117.342 141.48H112.827V146.001H117.342V141.48Z" fill="black"/>
<path d="M121.899 141.48H117.384V146.001H121.899V141.48Z" fill="black"/>
<path d="M126.414 141.48H121.899V146.001H126.414V141.48Z" fill="black"/>
<path d="M130.928 141.48H126.414V146.001H130.928V141.48Z" fill="black"/>
<path d="M135.443 141.48H130.928V146.001H135.443V141.48Z" fill="black"/>
<path d="M140 141.48H135.485V146.001H140V141.48Z" fill="black"/>
<path d="M140 136.918H135.485V141.438H140V136.918Z" fill="black"/>
<path d="M140 132.395H135.485V136.915H140V132.395Z" fill="black"/>
<path d="M140 127.875H135.485V132.395H140V127.875Z" fill="black"/>
<path d="M140 123.484H135.485V128.005H140V123.484Z" fill="black"/>
<path d="M140 118.922H135.485V123.442H140V118.922Z" fill="black"/>
<path d="M140 114.398H135.485V118.919H140V114.398Z" fill="black"/>
<path d="M140 109.879H135.485V114.399H140V109.879Z" fill="black"/>
<path d="M140 105.402H135.485V109.923H140V105.402Z" fill="black"/>
<path d="M140 100.883H135.485V105.403H140V100.883Z" fill="black"/>
<path d="M140 96.3203H135.485V100.841H140V96.3203Z" fill="black"/>
<path d="M140 91.7969H135.485V96.3171H140V91.7969Z" fill="black"/>
<path d="M140 87.4062H135.485V91.9265H140V87.4062Z" fill="black"/>
<path d="M140 82.8828H135.485V87.4031H140V82.8828Z" fill="black"/>
<path d="M140 78.3203H135.485V82.8406H140V78.3203Z" fill="black"/>
<path d="M140 73.8008H135.485V78.321H140V73.8008Z" fill="black"/>
<path d="M140 69.4102H135.485V73.9304H140V69.4102Z" fill="black"/>
<path d="M140 64.8477H135.485V69.3679H140V64.8477Z" fill="black"/>
<path d="M140 60.3242H135.485V64.8445H140V60.3242Z" fill="black"/>
<path d="M140 55.8047H135.485V60.3249H140V55.8047Z" fill="black"/>
<path d="M140 51.4102H135.485V55.9304H140V51.4102Z" fill="black"/>
<path d="M140 46.8477H135.485V51.3679H140V46.8477Z" fill="black"/>
<path d="M140 42.3281H135.485V46.8484H140V42.3281Z" fill="black"/>
<path d="M140 37.8086H135.485V42.3289H140V37.8086Z" fill="black"/>
<path d="M49.7892 37.6836H45.2744V42.2038H49.7892V37.6836Z" fill="black"/>
<path d="M54.3038 37.6836H49.7891V42.2038H54.3038V37.6836Z" fill="black"/>
<path d="M58.8185 37.6836H54.3037V42.2038H58.8185V37.6836Z" fill="black"/>
<path d="M63.3331 37.6836H58.8184V42.2038H63.3331V37.6836Z" fill="black"/>
<path d="M135.485 37.8086H130.971V42.3289H135.485V37.8086Z" fill="black"/>
<path d="M130.97 37.8086H126.456V42.3289H130.97V37.8086Z" fill="black"/>
<path d="M30.7594 59.3555H26.2446V63.8757H30.7594V59.3555Z" fill="black"/>
<path d="M26.2028 63.875H21.688V68.3953H26.2028V63.875Z" fill="black"/>
<path d="M35.274 63.875H30.7593V68.3953H35.274V63.875Z" fill="black"/>
<path d="M30.7594 68.4375H26.2446V72.9578H30.7594V68.4375Z" fill="black"/>
<path d="M37.5104 120.949H32.9956V125.469H37.5104V120.949Z" fill="black"/>
<path d="M42.0675 120.949H37.5527V125.469H42.0675V120.949Z" fill="black"/>
<path d="M46.5821 120.949H42.0674V125.469H46.5821V120.949Z" fill="black"/>
<path d="M23.9664 125.469H19.4517V129.989H23.9664V125.469Z" fill="black"/>
<path d="M32.9957 125.469H28.481V129.989H32.9957V125.469Z" fill="black"/>
<path d="M37.5104 125.469H32.9956V129.989H37.5104V125.469Z" fill="black"/>
<path d="M42.0675 125.469H37.5527V129.989H42.0675V125.469Z" fill="black"/>
<path d="M46.5821 125.469H42.0674V129.989H46.5821V125.469Z" fill="black"/>
<path d="M51.0973 125.469H46.5825V129.989H51.0973V125.469Z" fill="black"/>
<path d="M19.4093 129.988H14.8945V134.509H19.4093V129.988Z" fill="black"/>
<path d="M23.9664 129.988H19.4517V134.509H23.9664V129.988Z" fill="black"/>
<path d="M28.4811 129.988H23.9663V134.509H28.4811V129.988Z" fill="black"/>
<path d="M32.9957 129.988H28.481V134.509H32.9957V129.988Z" fill="black"/>
<path d="M37.5104 129.988H32.9956V134.509H37.5104V129.988Z" fill="black"/>
<path d="M42.0675 129.988H37.5527V134.509H42.0675V129.988Z" fill="black"/>
<path d="M46.5821 129.988H42.0674V134.509H46.5821V129.988Z" fill="black"/>
<path d="M51.0973 129.988H46.5825V134.509H51.0973V129.988Z" fill="black"/>
<path d="M14.8947 134.551H10.3799V139.071H14.8947V134.551Z" fill="black"/>
<path d="M19.4093 134.551H14.8945V139.071H19.4093V134.551Z" fill="black"/>
<path d="M23.9664 134.551H19.4517V139.071H23.9664V134.551Z" fill="black"/>
<path d="M28.4811 134.551H23.9663V139.071H28.4811V134.551Z" fill="black"/>
<path d="M32.9957 134.551H28.481V139.071H32.9957V134.551Z" fill="black"/>
<path d="M37.5104 134.551H32.9956V139.071H37.5104V134.551Z" fill="black"/>
<path d="M42.0675 134.551H37.5527V139.071H42.0675V134.551Z" fill="black"/>
<path d="M46.5821 134.551H42.0674V139.071H46.5821V134.551Z" fill="black"/>
<path d="M51.0973 134.551H46.5825V139.071H51.0973V134.551Z" fill="black"/>
<path d="M14.8947 139.07H10.3799V143.591H14.8947V139.07Z" fill="black"/>
<path d="M19.4093 139.07H14.8945V143.591H19.4093V139.07Z" fill="black"/>
<path d="M23.9664 139.07H19.4517V143.591H23.9664V139.07Z" fill="black"/>
<path d="M28.4811 139.07H23.9663V143.591H28.4811V139.07Z" fill="black"/>
<path d="M32.9957 139.07H28.481V143.591H32.9957V139.07Z" fill="black"/>
<path d="M37.5104 139.07H32.9956V143.591H37.5104V139.07Z" fill="black"/>
<path d="M42.0675 139.07H37.5527V143.591H42.0675V139.07Z" fill="black"/>
<path d="M46.5821 139.07H42.0674V143.591H46.5821V139.07Z" fill="black"/>
<path d="M51.0973 139.07H46.5825V143.591H51.0973V139.07Z" fill="black"/>
<path d="M28.4811 125.469H23.9663V129.989H28.4811V125.469Z" fill="black"/>
<path d="M28.4811 120.949H23.9663V125.469H28.4811V120.949Z" fill="black"/>
<path d="M32.9957 120.949H28.481V125.469H32.9957V120.949Z" fill="black"/>
<path d="M37.5104 116.387H32.9956V120.907H37.5104V116.387Z" fill="black"/>
<path d="M42.0675 116.387H37.5527V120.907H42.0675V116.387Z" fill="black"/>
<path d="M46.5821 116.387H42.0674V120.907H46.5821V116.387Z" fill="black"/>
<path d="M32.9957 116.387H28.481V120.907H32.9957V116.387Z" fill="black"/>
<path d="M51.0973 120.949H46.5825V125.469H51.0973V120.949Z" fill="black"/>
<path d="M51.0973 116.387H46.5825V120.907H51.0973V116.387Z" fill="black"/>
<path d="M37.5104 112.922H32.9956V117.442H37.5104V112.922Z" fill="black"/>
<path d="M42.0675 112.922H37.5527V117.442H42.0675V112.922Z" fill="black"/>
<path d="M46.5821 112.922H42.0674V117.442H46.5821V112.922Z" fill="black"/>
<path d="M51.0973 112.922H46.5825V117.442H51.0973V112.922Z" fill="black"/>
<path d="M42.0675 108.359H37.5527V112.88H42.0675V108.359Z" fill="black"/>
<path d="M46.5821 108.359H42.0674V112.88H46.5821V108.359Z" fill="black"/>
<path d="M51.0973 108.359H46.5825V112.88H51.0973V108.359Z" fill="black"/>
<path d="M55.6539 120.949H51.1392V125.469H55.6539V120.949Z" fill="black"/>
<path d="M55.6539 125.469H51.1392V129.989H55.6539V125.469Z" fill="black"/>
<path d="M60.1686 125.469H55.6538V129.989H60.1686V125.469Z" fill="black"/>
<path d="M55.6539 129.988H51.1392V134.509H55.6539V129.988Z" fill="black"/>
<path d="M60.1686 129.988H55.6538V134.509H60.1686V129.988Z" fill="black"/>
<path d="M55.6539 134.551H51.1392V139.071H55.6539V134.551Z" fill="black"/>
<path d="M60.1686 134.551H55.6538V139.071H60.1686V134.551Z" fill="black"/>
<path d="M55.6539 139.07H51.1392V143.591H55.6539V139.07Z" fill="black"/>
<path d="M60.1686 139.07H55.6538V143.591H60.1686V139.07Z" fill="black"/>
<path d="M55.6539 116.387H51.1392V120.907H55.6539V116.387Z" fill="black"/>
<path d="M60.1686 120.949H55.6538V125.469H60.1686V120.949Z" fill="black"/>
<path d="M60.1686 116.387H55.6538V120.907H60.1686V116.387Z" fill="black"/>
<path d="M55.6539 112.922H51.1392V117.442H55.6539V112.922Z" fill="black"/>
<path d="M60.1686 112.922H55.6538V117.442H60.1686V112.922Z" fill="black"/>
<path d="M55.6539 108.359H51.1392V112.88H55.6539V108.359Z" fill="black"/>
<path d="M64.6837 125.469H60.1689V129.989H64.6837V125.469Z" fill="black"/>
<path d="M64.6837 129.988H60.1689V134.509H64.6837V129.988Z" fill="black"/>
<path d="M64.6837 134.551H60.1689V139.071H64.6837V134.551Z" fill="black"/>
<path d="M64.6837 139.07H60.1689V143.591H64.6837V139.07Z" fill="black"/>
<path d="M64.6837 120.949H60.1689V125.469H64.6837V120.949Z" fill="black"/>
<path d="M64.6837 116.387H60.1689V120.907H64.6837V116.387Z" fill="black"/>
<path d="M64.6837 112.922H60.1689V117.442H64.6837V112.922Z" fill="black"/>
<path d="M67.8903 125.469H63.3755V129.989H67.8903V125.469Z" fill="black"/>
<path d="M67.8903 129.988H63.3755V134.509H67.8903V129.988Z" fill="black"/>
<path d="M67.8903 134.551H63.3755V139.071H67.8903V134.551Z" fill="black"/>
<path d="M67.8903 139.07H63.3755V143.591H67.8903V139.07Z" fill="black"/>
<path d="M67.8903 120.949H63.3755V125.469H67.8903V120.949Z" fill="black"/>
<path d="M67.8903 116.387H63.3755V120.907H67.8903V116.387Z" fill="black"/>
<path d="M67.8903 112.922H63.3755V117.442H67.8903V112.922Z" fill="black"/>
<path d="M72.4049 125.469H67.8901V129.989H72.4049V125.469Z" fill="black"/>
<path d="M72.4049 129.988H67.8901V134.509H72.4049V129.988Z" fill="black"/>
<path d="M72.4049 134.551H67.8901V139.071H72.4049V134.551Z" fill="black"/>
<path d="M72.4049 139.07H67.8901V143.591H72.4049V139.07Z" fill="black"/>
<path d="M72.4049 120.949H67.8901V125.469H72.4049V120.949Z" fill="black"/>
<path d="M72.4049 116.387H67.8901V120.907H72.4049V116.387Z" fill="black"/>
<path d="M72.4049 112.922H67.8901V117.442H72.4049V112.922Z" fill="black"/>
<path d="M76.5402 125.469H72.0254V129.989H76.5402V125.469Z" fill="black"/>
<path d="M76.5402 129.988H72.0254V134.509H76.5402V129.988Z" fill="black"/>
<path d="M76.5402 134.551H72.0254V139.071H76.5402V134.551Z" fill="black"/>
<path d="M76.5402 139.07H72.0254V143.591H76.5402V139.07Z" fill="black"/>
<path d="M76.5402 120.949H72.0254V125.469H76.5402V120.949Z" fill="black"/>
<path d="M76.5402 116.387H72.0254V120.907H76.5402V116.387Z" fill="black"/>
<path d="M76.5402 112.922H72.0254V117.442H76.5402V112.922Z" fill="black"/>
<path d="M81.0128 125.469H76.498V129.989H81.0128V125.469Z" fill="black"/>
<path d="M81.0128 129.988H76.498V134.509H81.0128V129.988Z" fill="black"/>
<path d="M81.0128 134.551H76.498V139.071H81.0128V134.551Z" fill="black"/>
<path d="M81.0128 139.07H76.498V143.591H81.0128V139.07Z" fill="black"/>
<path d="M81.0128 120.949H76.498V125.469H81.0128V120.949Z" fill="black"/>
<path d="M81.0128 116.387H76.498V120.907H81.0128V116.387Z" fill="black"/>
<path d="M81.0128 112.922H76.498V117.442H81.0128V112.922Z" fill="black"/>
<path d="M84.2618 125.469H79.7471V129.989H84.2618V125.469Z" fill="black"/>
<path d="M84.2618 129.988H79.7471V134.509H84.2618V129.988Z" fill="black"/>
<path d="M84.2618 134.551H79.7471V139.071H84.2618V134.551Z" fill="black"/>
<path d="M84.2618 139.07H79.7471V143.591H84.2618V139.07Z" fill="black"/>
<path d="M84.2618 120.949H79.7471V125.469H84.2618V120.949Z" fill="black"/>
<path d="M84.2618 116.387H79.7471V120.907H84.2618V116.387Z" fill="black"/>
<path d="M84.2618 112.922H79.7471V117.442H84.2618V112.922Z" fill="black"/>
<path d="M88.7765 125.469H84.2617V129.989H88.7765V125.469Z" fill="black"/>
<path d="M88.7765 129.988H84.2617V134.509H88.7765V129.988Z" fill="black"/>
<path d="M88.7765 134.551H84.2617V139.071H88.7765V134.551Z" fill="black"/>
<path d="M88.7765 139.07H84.2617V143.591H88.7765V139.07Z" fill="black"/>
<path d="M88.7765 120.949H84.2617V125.469H88.7765V120.949Z" fill="black"/>
<path d="M88.7765 116.387H84.2617V120.907H88.7765V116.387Z" fill="black"/>
<path d="M88.7765 112.922H84.2617V117.442H88.7765V112.922Z" fill="black"/>
<path d="M93.2911 125.469H88.7764V129.989H93.2911V125.469Z" fill="black"/>
<path d="M93.2911 129.988H88.7764V134.509H93.2911V129.988Z" fill="black"/>
<path d="M93.2911 134.551H88.7764V139.071H93.2911V134.551Z" fill="black"/>
<path d="M93.2911 139.07H88.7764V143.591H93.2911V139.07Z" fill="black"/>
<path d="M93.2911 120.949H88.7764V125.469H93.2911V120.949Z" fill="black"/>
<path d="M93.2911 116.387H88.7764V120.907H93.2911V116.387Z" fill="black"/>
<path d="M93.2911 112.922H88.7764V117.442H93.2911V112.922Z" fill="black"/>
<path d="M97.8058 125.469H93.291V129.989H97.8058V125.469Z" fill="black"/>
<path d="M97.8058 129.988H93.291V134.509H97.8058V129.988Z" fill="black"/>
<path d="M97.8058 134.551H93.291V139.071H97.8058V134.551Z" fill="black"/>
<path d="M97.8058 139.07H93.291V143.591H97.8058V139.07Z" fill="black"/>
<path d="M97.8058 120.949H93.291V125.469H97.8058V120.949Z" fill="black"/>
<path d="M97.8058 116.387H93.291V120.907H97.8058V116.387Z" fill="black"/>
<path d="M97.8058 112.922H93.291V117.442H97.8058V112.922Z" fill="black"/>
<path d="M101.013 125.469H96.498V129.989H101.013V125.469Z" fill="black"/>
<path d="M101.013 129.988H96.498V134.509H101.013V129.988Z" fill="black"/>
<path d="M101.013 134.551H96.498V139.071H101.013V134.551Z" fill="black"/>
<path d="M101.013 139.07H96.498V143.591H101.013V139.07Z" fill="black"/>
<path d="M101.013 120.949H96.498V125.469H101.013V120.949Z" fill="black"/>
<path d="M101.013 116.387H96.498V120.907H101.013V116.387Z" fill="black"/>
<path d="M101.013 112.922H96.498V117.442H101.013V112.922Z" fill="black"/>
<path d="M105.527 125.469H101.013V129.989H105.527V125.469Z" fill="black"/>
<path d="M105.527 129.988H101.013V134.509H105.527V129.988Z" fill="black"/>
<path d="M105.527 134.551H101.013V139.071H105.527V134.551Z" fill="black"/>
<path d="M105.527 139.07H101.013V143.591H105.527V139.07Z" fill="black"/>
<path d="M105.527 120.949H101.013V125.469H105.527V120.949Z" fill="black"/>
<path d="M105.527 116.387H101.013V120.907H105.527V116.387Z" fill="black"/>
<path d="M105.527 112.922H101.013V117.442H105.527V112.922Z" fill="black"/>
<path d="M72.4474 108.613H67.9326V113.134H72.4474V108.613Z" fill="black"/>
<path d="M76.5821 108.613H72.0674V113.134H76.5821V108.613Z" fill="black"/>
<path d="M76.5821 105.148H72.0674V109.669H76.5821V105.148Z" fill="black"/>
<path d="M81.0968 108.613H76.582V113.134H81.0968V108.613Z" fill="black"/>
<path d="M81.0968 105.148H76.582V109.669H81.0968V105.148Z" fill="black"/>
<path d="M84.3038 108.613H79.7891V113.134H84.3038V108.613Z" fill="black"/>
<path d="M84.3038 105.148H79.7891V109.669H84.3038V105.148Z" fill="black"/>
<path d="M88.8185 108.613H84.3037V113.134H88.8185V108.613Z" fill="black"/>
<path d="M88.8185 105.148H84.3037V109.669H88.8185V105.148Z" fill="black"/>
<path d="M93.3331 108.613H88.8184V113.134H93.3331V108.613Z" fill="black"/>
<path d="M93.3331 105.148H88.8184V109.669H93.3331V105.148Z" fill="black"/>
<path d="M97.8483 108.613H93.3335V113.134H97.8483V108.613Z" fill="black"/>
<path d="M97.8483 105.148H93.3335V109.669H97.8483V105.148Z" fill="black"/>
<path d="M101.055 108.613H96.54V113.134H101.055V108.613Z" fill="black"/>
<path d="M101.055 105.148H96.54V109.669H101.055V105.148Z" fill="black"/>
<path d="M105.569 108.613H101.055V113.134H105.569V108.613Z" fill="black"/>
<path d="M105.569 105.148H101.055V109.669H105.569V105.148Z" fill="black"/>
<path d="M81.0968 100.586H76.582V105.106H81.0968V100.586Z" fill="black"/>
<path d="M84.3038 100.586H79.7891V105.106H84.3038V100.586Z" fill="black"/>
<path d="M88.8185 100.586H84.3037V105.106H88.8185V100.586Z" fill="black"/>
<path d="M93.3331 100.586H88.8184V105.106H93.3331V100.586Z" fill="black"/>
<path d="M97.8483 100.586H93.3335V105.106H97.8483V100.586Z" fill="black"/>
<path d="M101.055 100.586H96.54V105.106H101.055V100.586Z" fill="black"/>
<path d="M105.569 100.586H101.055V105.106H105.569V100.586Z" fill="black"/>
<path d="M84.3038 96.0664H79.7891V100.587H84.3038V96.0664Z" fill="black"/>
<path d="M88.8185 96.0664H84.3037V100.587H88.8185V96.0664Z" fill="black"/>
<path d="M93.3331 96.0664H88.8184V100.587H93.3331V96.0664Z" fill="black"/>
<path d="M97.8483 96.0664H93.3335V100.587H97.8483V96.0664Z" fill="black"/>
<path d="M101.097 96.0664H96.582V100.587H101.097V96.0664Z" fill="black"/>
<path d="M105.569 96.0664H101.055V100.587H105.569V96.0664Z" fill="black"/>
<path d="M84.3037 96.0671V91.5469H88.8185V96.0671" fill="black"/>
<path d="M88.8184 96.0671V91.5469H93.3331V96.0671" fill="black"/>
<path d="M93.3335 96.0671V91.5469H97.8483V96.0671" fill="black"/>
<path d="M96.54 96.0671V91.5469H101.055V96.0671" fill="black"/>
<path d="M101.055 96.0671V91.5469H105.569V96.0671" fill="black"/>
<path d="M46.5821 104.094H42.0674V108.614H46.5821V104.094Z" fill="black"/>
<path d="M51.0973 104.094H46.5825V108.614H51.0973V104.094Z" fill="black"/>
<path d="M30.7594 72.957H26.2446V77.4773H30.7594V72.957Z" fill="black"/>
<path d="M30.7594 54.8359H26.2446V59.3562H30.7594V54.8359Z" fill="black"/>
<path d="M21.6876 63.875H17.1729V68.3953H21.6876V63.875Z" fill="black"/>
<path d="M39.7892 63.875H35.2744V68.3953H39.7892V63.875Z" fill="black"/>
<path d="M110.042 125.469H105.527V129.989H110.042V125.469Z" fill="black"/>
<path d="M110.042 129.988H105.527V134.509H110.042V129.988Z" fill="black"/>
<path d="M110.042 134.551H105.527V139.071H110.042V134.551Z" fill="black"/>
<path d="M110.042 139.07H105.527V143.591H110.042V139.07Z" fill="black"/>
<path d="M110.042 120.949H105.527V125.469H110.042V120.949Z" fill="black"/>
<path d="M110.042 116.387H105.527V120.907H110.042V116.387Z" fill="black"/>
<path d="M110.042 112.922H105.527V117.442H110.042V112.922Z" fill="black"/>
<path d="M114.557 125.469H110.042V129.989H114.557V125.469Z" fill="black"/>
<path d="M114.557 129.988H110.042V134.509H114.557V129.988Z" fill="black"/>
<path d="M114.557 134.551H110.042V139.071H114.557V134.551Z" fill="black"/>
<path d="M114.557 139.07H110.042V143.591H114.557V139.07Z" fill="black"/>
<path d="M114.557 120.949H110.042V125.469H114.557V120.949Z" fill="black"/>
<path d="M114.557 116.387H110.042V120.907H114.557V116.387Z" fill="black"/>
<path d="M114.557 112.922H110.042V117.442H114.557V112.922Z" fill="black"/>
<path d="M117.764 125.469H113.249V129.989H117.764V125.469Z" fill="black"/>
<path d="M117.764 129.988H113.249V134.509H117.764V129.988Z" fill="black"/>
<path d="M117.764 134.551H113.249V139.071H117.764V134.551Z" fill="black"/>
<path d="M117.764 139.07H113.249V143.591H117.764V139.07Z" fill="black"/>
<path d="M117.764 120.949H113.249V125.469H117.764V120.949Z" fill="black"/>
<path d="M117.764 116.387H113.249V120.907H117.764V116.387Z" fill="black"/>
<path d="M117.764 112.922H113.249V117.442H117.764V112.922Z" fill="black"/>
<path d="M122.278 125.469H117.764V129.989H122.278V125.469Z" fill="black"/>
<path d="M122.278 129.988H117.764V134.509H122.278V129.988Z" fill="black"/>
<path d="M122.278 134.551H117.764V139.071H122.278V134.551Z" fill="black"/>
<path d="M122.278 139.07H117.764V143.591H122.278V139.07Z" fill="black"/>
<path d="M122.278 120.949H117.764V125.469H122.278V120.949Z" fill="black"/>
<path d="M122.278 116.387H117.764V120.907H122.278V116.387Z" fill="black"/>
<path d="M122.278 112.922H117.764V117.442H122.278V112.922Z" fill="black"/>
<path d="M110.085 108.613H105.57V113.134H110.085V108.613Z" fill="black"/>
<path d="M110.085 105.148H105.57V109.669H110.085V105.148Z" fill="black"/>
<path d="M114.599 108.613H110.084V113.134H114.599V108.613Z" fill="black"/>
<path d="M114.599 105.148H110.084V109.669H114.599V105.148Z" fill="black"/>
<path d="M117.806 108.613H113.291V113.134H117.806V108.613Z" fill="black"/>
<path d="M117.806 105.148H113.291V109.669H117.806V105.148Z" fill="black"/>
<path d="M122.32 108.613H117.806V113.134H122.32V108.613Z" fill="black"/>
<path d="M122.32 105.148H117.806V109.669H122.32V105.148Z" fill="black"/>
<path d="M110.127 100.586H105.612V105.106H110.127V100.586Z" fill="black"/>
<path d="M114.599 100.586H110.084V105.106H114.599V100.586Z" fill="black"/>
<path d="M117.848 100.586H113.333V105.106H117.848V100.586Z" fill="black"/>
<path d="M122.363 100.586H117.848V105.106H122.363V100.586Z" fill="black"/>
<path d="M110.127 96.0664H105.612V100.587H110.127V96.0664Z" fill="black"/>
<path d="M114.641 96.0664H110.126V100.587H114.641V96.0664Z" fill="black"/>
<path d="M117.848 96.0664H113.333V100.587H117.848V96.0664Z" fill="black"/>
<path d="M122.363 96.0664H117.848V100.587H122.363V96.0664Z" fill="black"/>
<path d="M105.57 96.0671V91.5469H110.127V96.0671" fill="black"/>
<path d="M110.084 96.0671V91.5469H114.641V96.0671" fill="black"/>
<path d="M113.291 96.0671V91.5469H117.848V96.0671" fill="black"/>
<path d="M117.806 96.0671V91.5469H122.363V96.0671" fill="black"/>
<path d="M88.8184 91.5476V87.0273H93.3331V91.5476" fill="black"/>
<path d="M96.54 91.5476V87.0273H101.055V91.5476" fill="black"/>
<path d="M101.055 91.5476V87.0273H105.569V91.5476" fill="black"/>
<path d="M105.57 91.5476V87.0273H110.127V91.5476" fill="black"/>
<path d="M110.084 91.5476V87.0273H114.641V91.5476" fill="black"/>
<path d="M113.291 91.5476V87.0273H117.848V91.5476" fill="black"/>
<path d="M117.806 91.5476V87.0273H122.363V91.5476" fill="black"/>
<path d="M92.7847 87.0273V82.4648H97.2994V87.0273" fill="black"/>
<path d="M101.097 87.0273V82.4648H105.612V87.0273" fill="black"/>
<path d="M105.612 87.0273V82.4648H110.127V87.0273" fill="black"/>
<path d="M110.126 87.0273V82.4648H114.641V87.0273" fill="black"/>
<path d="M113.333 87.0273V82.4648H117.848V87.0273" fill="black"/>
<path d="M117.848 87.0273V82.4648H122.363V87.0273" fill="black"/>
<path d="M125.401 125.469H120.886V129.989H125.401V125.469Z" fill="black"/>
<path d="M125.401 129.988H120.886V134.509H125.401V129.988Z" fill="black"/>
<path d="M125.401 134.551H120.886V139.071H125.401V134.551Z" fill="black"/>
<path d="M125.401 139.07H120.886V143.591H125.401V139.07Z" fill="black"/>
<path d="M125.401 120.949H120.886V125.469H125.401V120.949Z" fill="black"/>
<path d="M125.401 116.387H120.886V120.907H125.401V116.387Z" fill="black"/>
<path d="M125.401 112.922H120.886V117.442H125.401V112.922Z" fill="black"/>
<path d="M128.608 125.469H124.093V129.989H128.608V125.469Z" fill="black"/>
<path d="M128.608 129.988H124.093V134.509H128.608V129.988Z" fill="black"/>
<path d="M128.608 134.551H124.093V139.071H128.608V134.551Z" fill="black"/>
<path d="M128.608 139.07H124.093V143.591H128.608V139.07Z" fill="black"/>
<path d="M128.608 120.949H124.093V125.469H128.608V120.949Z" fill="black"/>
<path d="M128.608 116.387H124.093V120.907H128.608V116.387Z" fill="black"/>
<path d="M128.608 112.922H124.093V117.442H128.608V112.922Z" fill="black"/>
<path d="M133.122 125.469H128.607V129.989H133.122V125.469Z" fill="black"/>
<path d="M133.122 129.988H128.607V134.509H133.122V129.988Z" fill="black"/>
<path d="M133.122 134.551H128.607V139.071H133.122V134.551Z" fill="black"/>
<path d="M133.122 139.07H128.607V143.591H133.122V139.07Z" fill="black"/>
<path d="M133.122 120.949H128.607V125.469H133.122V120.949Z" fill="black"/>
<path d="M133.122 116.387H128.607V120.907H133.122V116.387Z" fill="black"/>
<path d="M133.122 112.922H128.607V117.442H133.122V112.922Z" fill="black"/>
<path d="M125.443 108.613H120.928V113.134H125.443V108.613Z" fill="black"/>
<path d="M125.443 105.148H120.928V109.669H125.443V105.148Z" fill="black"/>
<path d="M128.65 108.613H124.135V113.134H128.65V108.613Z" fill="black"/>
<path d="M128.65 105.148H124.135V109.669H128.65V105.148Z" fill="black"/>
<path d="M133.165 108.613H128.65V113.134H133.165V108.613Z" fill="black"/>
<path d="M133.165 105.148H128.65V109.669H133.165V105.148Z" fill="black"/>
<path d="M125.443 100.586H120.928V105.106H125.443V100.586Z" fill="black"/>
<path d="M128.692 100.586H124.177V105.106H128.692V100.586Z" fill="black"/>
<path d="M133.207 100.586H128.692V105.106H133.207V100.586Z" fill="black"/>
<path d="M125.485 96.0664H120.971V100.587H125.485V96.0664Z" fill="black"/>
<path d="M128.692 96.0664H124.177V100.587H128.692V96.0664Z" fill="black"/>
<path d="M133.207 96.0664H128.692V100.587H133.207V96.0664Z" fill="black"/>
<path d="M120.928 96.0671V91.5469H125.443V96.0671" fill="black"/>
<path d="M124.135 96.0671V91.5469H128.692V96.0671" fill="black"/>
<path d="M128.65 96.0671V91.5469H133.207V96.0671" fill="black"/>
<path d="M120.928 91.5476V87.0273H125.443V91.5476" fill="black"/>
<path d="M124.135 91.5476V87.0273H128.692V91.5476" fill="black"/>
<path d="M128.65 91.5476V87.0273H133.207V91.5476" fill="black"/>
<path d="M120.971 87.0273V82.4648H125.485V87.0273" fill="black"/>
<path d="M124.177 87.0273V82.4648H128.692V87.0273" fill="black"/>
<path d="M128.692 87.0273V82.4648H133.207V87.0273" fill="black"/>
<path d="M137.637 125.469H133.123V129.989H137.637V125.469Z" fill="black"/>
<path d="M137.637 129.988H133.123V134.509H137.637V129.988Z" fill="black"/>
<path d="M137.637 134.551H133.123V139.071H137.637V134.551Z" fill="black"/>
<path d="M137.637 139.07H133.123V143.591H137.637V139.07Z" fill="black"/>
<path d="M137.637 120.949H133.123V125.469H137.637V120.949Z" fill="black"/>
<path d="M137.637 116.387H133.123V120.907H137.637V116.387Z" fill="black"/>
<path d="M137.637 112.922H133.123V117.442H137.637V112.922Z" fill="black"/>
<path d="M137.721 108.613H133.207V113.134H137.721V108.613Z" fill="black"/>
<path d="M137.721 105.148H133.207V109.669H137.721V105.148Z" fill="black"/>
<path d="M137.721 100.586H133.207V105.106H137.721V100.586Z" fill="black"/>
<path d="M137.721 96.0664H133.207V100.587H137.721V96.0664Z" fill="black"/>
<path d="M133.207 96.0671V91.5469H137.721V96.0671" fill="black"/>
<path d="M133.207 91.5476V87.0273H137.721V91.5476" fill="black"/>
<path d="M133.207 87.0273V82.4648H137.721V87.0273" fill="black"/>
<path d="M104.43 82.4617V77.9414H108.945V82.4617" fill="black"/>
<path d="M108.945 82.4617V77.9414H113.46V82.4617" fill="black"/>
<path d="M113.333 82.4617V77.9414H117.848V82.4617" fill="black"/>
<path d="M117.848 82.4617V77.9414H122.363V82.4617" fill="black"/>
<path d="M120.971 82.4617V77.9414H125.485V82.4617" fill="black"/>
<path d="M124.177 82.4617V77.9414H128.692V82.4617" fill="black"/>
<path d="M128.692 82.4617V77.9414H133.207V82.4617" fill="black"/>
<path d="M105.738 77.9414V73.3789H110.253V77.9414" fill="black"/>
<path d="M110.126 77.9414V73.3789H114.641V77.9414" fill="black"/>
<path d="M114.599 77.9414V73.3789H119.156V77.9414" fill="black"/>
<path d="M117.722 77.9414V73.3789H122.279V77.9414" fill="black"/>
<path d="M120.971 77.9414V73.3789H125.485V77.9414" fill="black"/>
<path d="M92.7847 91.5476V87.0273H97.2994V91.5476" fill="black"/>
<path d="M96.54 87.0273V82.4648H101.097V87.0273" fill="black"/>
<path d="M99.9155 82.4617V77.9414H104.43V82.4617" fill="black"/>
<path d="M55.6539 104.094H51.1392V108.614H55.6539V104.094Z" fill="black"/>
<path d="M60.1686 108.613H55.6538V113.134H60.1686V108.613Z" fill="black"/>
<path d="M76.0762 36.2461H72.4053V28.9365H76.0762V36.2461ZM76.0762 25.2197H72.4473V28.8936H68.7764V25.2188H72.4053V17.8701H76.0762V25.2197ZM79.7891 28.8936H76.1182V25.2188H79.7891V28.8936ZM129.916 25.8115H126.245V18.4629H129.916V25.8115ZM129.916 18.46H122.616V14.7852H129.916V18.46ZM133.629 18.46H129.958V14.7852H133.629V18.46ZM122.574 14.7422H118.903V11.0664H122.574V14.7422ZM129.916 14.7422H122.616V11.0664H129.916V14.7422ZM133.629 14.7422H129.958V11.0664H133.629V14.7422ZM137.341 14.7422H133.67V11.0664H137.341V14.7422ZM129.916 11.0244H122.616V7.34863H126.245V3.71875H129.916V11.0244ZM133.629 11.0244H129.958V7.34863H133.629V11.0244ZM129.916 3.67578H126.245V0H129.916V3.67578Z" fill="#101010"/>
</g>
<defs>
<clipPath id="clip0_939_259">
<rect width="140" height="146" fill="white"/>
</clipPath>
</defs>
</svg>
