<svg width="139" height="114" viewBox="0 0 139 114" fill="none" xmlns="http://www.w3.org/2000/svg">
<g clip-path="url(#clip0_1225_59)">
<path d="M133.804 103.543H128.607V108.772H133.804V103.543Z" fill="black"/>
<path d="M133.804 5.23047H128.607V10.4598H133.804V5.23047Z" fill="black"/>
<path d="M118.527 108.77H113.331H108.134H102.938H97.7417H92.8053H87.609H82.4128H77.2165H72.2801H67.0838H61.8875H56.6913H51.495H46.5586H41.3623H36.166H30.9698H25.7735H20.5772H15.381H10.3926V113.999H15.381H20.5772H25.7735H30.9698H36.166H41.3623H46.5586H51.495H56.6913H61.8875H67.0838H72.2801H77.2165H82.4128H87.609H92.8053H97.7417H102.938H108.134H113.331H118.527H123.463H128.608V108.77H123.463H118.527Z" fill="black"/>
<path d="M113.278 10.457H108.082V15.6864H113.278V10.457Z" fill="black"/>
<path d="M108.082 15.6875H102.886V20.6554H108.082V15.6875Z" fill="black"/>
<path d="M87.5571 67.457H82.3608V72.6864H87.5571V67.457Z" fill="black"/>
<path d="M87.5571 10.457H82.3608V15.6864H87.5571V10.457Z" fill="black"/>
<path d="M82.3608 72.6875H77.1646V77.6554H82.3608V72.6875Z" fill="black"/>
<path d="M82.3608 62.2305H77.1646V67.4598H82.3608V62.2305Z" fill="black"/>
<path d="M82.3608 15.6875H77.1646V20.6554H82.3608V15.6875Z" fill="black"/>
<path d="M77.1645 77.6562H72.228V82.8856H77.1645V77.6562Z" fill="black"/>
<path d="M77.1645 57H72.228V62.2294H77.1645V57Z" fill="black"/>
<path d="M72.228 82.8867H67.0317V88.1161H72.228V82.8867Z" fill="black"/>
<path d="M72.228 51.7695H67.0317V56.9989H72.228V51.7695Z" fill="black"/>
<path d="M61.8354 82.7554V77.5261V72.5582V67.3288V62.0994V56.8701V51.7715H67.0317V46.8036H61.8354V41.5742H56.6392V46.6728V51.6407V56.8701V62.0994V67.3288V72.5582V77.5261V82.7554V87.9848V93.2141V98.3128H61.8354V93.3449H67.0317V88.1155H61.8354V82.7554Z" fill="black"/>
<path d="M61.8354 10.457H56.6392V15.6864H61.8354V10.457Z" fill="black"/>
<path d="M56.6391 15.6875H51.4429V20.6554H56.6391V15.6875Z" fill="black"/>
<path d="M36.1142 10.457H30.918V15.6864H36.1142V10.457Z" fill="black"/>
<path d="M30.9179 15.6875H25.7217V20.6554H30.9179V15.6875Z" fill="black"/>
<path d="M20.5772 5.22936H25.7735H30.9698H36.1141V10.4587H41.3103V5.22936H46.5586H51.495H56.6913H61.8356V10.4587H67.0318V5.22936H72.2801H77.2165H82.4128H87.5571V10.4587H92.7533V5.22936H97.7417H102.938H108.134H113.279V10.4587H118.475V5.22936H123.463H128.608V0H123.463H118.527H113.331H108.134H102.938H97.7417H92.8053H87.609H82.4128H77.2165H72.2801H67.0838H61.8875H56.6913H51.495H46.5586H41.3623H36.166H30.9698H25.7735H20.5772H15.381H10.3926V5.22936H15.381H20.5772Z" fill="black"/>
<path d="M10.3926 103.543H5.19629V108.772H10.3926V103.543Z" fill="black"/>
<path d="M10.3926 5.23047H5.19629V10.4598H10.3926V5.23047Z" fill="black"/>
<path d="M5.19626 98.1795V93.2116V87.9823V82.7529V77.5235V72.5557V67.3263V62.0969V56.8676V51.6382V46.6703V41.441V36.2116V31.113H10.4445H15.3809H20.5772H25.7735H30.9697H36.166H41.3622H46.5585H51.4949H56.6912H61.8875H67.0837H72.28H77.2164H82.4127H87.609H92.8052H97.7417H102.938H108.134H113.33H118.527H123.463H128.659H133.804V36.2116V41.441V46.6703V51.6382V56.8676V62.0969V67.3263V72.5557V77.5235V82.7529V87.9823V93.2116V98.1795V103.54H139V98.1795V93.2116V87.9823V82.7529V77.5235V72.5557V67.3263V62.0969V56.8676V51.6382V46.6703V41.441V36.2116V30.9823V25.7529V20.5235V15.5557V10.457H133.804V15.5557V20.5235V25.8836H128.659H123.463H118.527H113.33H108.134H102.886V20.6543H97.6897V25.8836H92.8052H87.609H82.4127H77.1645V20.6543H72.228V25.8836H67.0837H61.8875H56.6912H51.443V20.6543H46.5065V25.8836H41.3622H36.166H30.9697H25.7215V20.6543H20.5252V25.8836H15.3809H10.4445H5.19626V20.5235V15.5557V10.457H0V15.5557V20.5235V25.7529V30.9823V36.2116V41.441V46.6703V51.6382V56.8676V62.0969V67.3263V72.5557V77.5235V82.7529V87.9823V93.2116V98.1795V103.54H5.19626V98.1795Z" fill="black"/>
</g>
<defs>
<clipPath id="clip0_1225_59">
<rect width="139" height="114" fill="white"/>
</clipPath>
</defs>
</svg>
