<svg width="148" height="179" viewBox="0 0 148 179" fill="none" xmlns="http://www.w3.org/2000/svg">
<g clip-path="url(#clip0_1225_504)">
<path d="M65.1244 41.8398H59.2075V47.8143H65.1244V41.8398Z" fill="black"/>
<path d="M59.1982 41.8398H53.2812V47.8143H59.1982V41.8398Z" fill="black"/>
<path d="M53.2812 47.8242H47.3643V53.7987H53.2812V47.8242Z" fill="black"/>
<path d="M47.3642 53.7969H41.4473V59.7713H47.3642V53.7969Z" fill="black"/>
<path d="M47.3642 59.7734H41.4473V65.7479H47.3642V59.7734Z" fill="black"/>
<path d="M88.8017 71.7305H82.8848V77.7049H88.8017V71.7305Z" fill="black"/>
<path d="M76.9584 71.7305H71.0415V77.7049H76.9584V71.7305Z" fill="black"/>
<path d="M65.1244 71.7305H59.2075V77.7049H65.1244V71.7305Z" fill="black"/>
<path d="M82.8852 77.707H76.9683V83.6815H82.8852V77.707Z" fill="black"/>
<path d="M71.0414 77.707H65.1245V83.6815H71.0414V77.707Z" fill="black"/>
<path d="M130.24 17.9336H124.323V23.908H130.24V17.9336Z" fill="black"/>
<path d="M124.323 23.9062H118.406V29.8807H124.323V23.9062Z" fill="black"/>
<path d="M118.406 29.8906H112.489V35.8651H118.406V29.8906Z" fill="black"/>
<path d="M148 71.7305H142.083V77.7049H148V71.7305Z" fill="black"/>
<path d="M142.083 71.7305H136.166V77.7049H142.083V71.7305Z" fill="black"/>
<path d="M136.166 71.7305H130.249V77.7049H136.166V71.7305Z" fill="black"/>
<path d="M124.323 113.574H118.406V119.549H124.323V113.574Z" fill="black"/>
<path d="M130.24 119.559H124.323V125.533H130.24V119.559Z" fill="black"/>
<path d="M136.166 125.531H130.249V131.506H136.166V125.531Z" fill="black"/>
<path d="M76.9584 0H71.0415V5.97444H76.9584V0Z" fill="black"/>
<path d="M76.9584 5.97266H71.0415V11.9471H76.9584V5.97266Z" fill="black"/>
<path d="M76.9584 11.957H71.0415V17.9315H76.9584V11.957Z" fill="black"/>
<path d="M23.6772 17.9336H17.7603V23.908H23.6772V17.9336Z" fill="black"/>
<path d="M29.6039 23.9062H23.687V29.8807H29.6039V23.9062Z" fill="black"/>
<path d="M35.5209 29.8906H29.604V35.8651H35.5209V29.8906Z" fill="black"/>
<path d="M17.7602 71.7305H11.8433V77.7049H17.7602V71.7305Z" fill="black"/>
<path d="M11.8437 71.7305H5.92676V77.7049H11.8437V71.7305Z" fill="black"/>
<path d="M5.91692 71.7305H0V77.7049H5.91692V71.7305Z" fill="black"/>
<path d="M29.6039 113.574H23.687V119.549H29.6039V113.574Z" fill="black"/>
<path d="M23.6772 119.559H17.7603V125.533H23.6772V119.559Z" fill="black"/>
<path d="M17.7602 125.531H11.8433V131.506H17.7602V125.531Z" fill="black"/>
<path d="M88.8022 23.9062H82.8853V29.8807H88.8022V23.9062Z" fill="black"/>
<path d="M82.8852 23.9062H76.9683V29.8807H82.8852V23.9062Z" fill="black"/>
<path d="M76.9584 23.9062H71.0415V29.8807H76.9584V23.9062Z" fill="black"/>
<path d="M71.0414 23.9062H65.1245V29.8807H71.0414V23.9062Z" fill="black"/>
<path d="M65.1249 23.9062H59.208V29.8807H65.1249V23.9062Z" fill="black"/>
<path d="M100.645 29.8906H94.7285V35.8651H100.645V29.8906Z" fill="black"/>
<path d="M94.7187 29.8906H88.8018V35.8651H94.7187V29.8906Z" fill="black"/>
<path d="M59.1982 29.8906H53.2812V35.8651H59.1982V29.8906Z" fill="black"/>
<path d="M53.2812 29.8906H47.3643V35.8651H53.2812V29.8906Z" fill="black"/>
<path d="M106.562 35.8633H100.646V41.8377H106.562V35.8633Z" fill="black"/>
<path d="M47.3642 35.8633H41.4473V41.8377H47.3642V35.8633Z" fill="black"/>
<path d="M112.479 41.8398H106.562V47.8143H112.479V41.8398Z" fill="black"/>
<path d="M41.4379 41.8398H35.521V47.8143H41.4379V41.8398Z" fill="black"/>
<path d="M118.406 47.8242H112.489V53.7987H118.406V47.8242Z" fill="black"/>
<path d="M35.5209 47.8242H29.604V53.7987H35.5209V47.8242Z" fill="black"/>
<path d="M118.406 53.7969H112.489V59.7713H118.406V53.7969Z" fill="black"/>
<path d="M35.5209 53.7969H29.604V59.7713H35.5209V53.7969Z" fill="black"/>
<path d="M124.323 59.7734H118.406V65.7479H124.323V59.7734Z" fill="black"/>
<path d="M29.6039 59.7734H23.687V65.7479H29.6039V59.7734Z" fill="black"/>
<path d="M124.323 65.7578H118.406V71.7323H124.323V65.7578Z" fill="black"/>
<path d="M29.6039 65.7578H23.687V71.7323H29.6039V65.7578Z" fill="black"/>
<path d="M124.323 71.7305H118.406V77.7049H124.323V71.7305Z" fill="black"/>
<path d="M29.6039 71.7305H23.687V77.7049H29.6039V71.7305Z" fill="black"/>
<path d="M124.323 77.707H118.406V83.6815H124.323V77.707Z" fill="black"/>
<path d="M29.6039 77.707H23.687V83.6815H29.6039V77.707Z" fill="black"/>
<path d="M124.323 83.6914H118.406V89.6658H124.323V83.6914Z" fill="black"/>
<path d="M29.6039 83.6914H23.687V89.6658H29.6039V83.6914Z" fill="black"/>
<path d="M118.406 89.6641H112.489V95.6385H118.406V89.6641Z" fill="black"/>
<path d="M35.5209 89.6641H29.604V95.6385H35.5209V89.6641Z" fill="black"/>
<path d="M118.406 95.6367H112.489V101.611H118.406V95.6367Z" fill="black"/>
<path d="M35.5209 95.6367H29.604V101.611H35.5209V95.6367Z" fill="black"/>
<path d="M112.479 101.621H106.562V107.596H112.479V101.621Z" fill="black"/>
<path d="M41.4379 101.621H35.521V107.596H41.4379V101.621Z" fill="black"/>
<path d="M112.479 107.598H106.562V113.572H112.479V107.598Z" fill="black"/>
<path d="M41.4379 107.598H35.521V113.572H41.4379V107.598Z" fill="black"/>
<path d="M106.562 113.57H100.646V119.545H106.562V113.57Z" fill="black"/>
<path d="M47.3642 113.57H41.4473V119.545H47.3642V113.57Z" fill="black"/>
<path d="M100.645 119.555H94.7285V125.529H100.645V119.555Z" fill="black"/>
<path d="M53.2812 119.555H47.3643V125.529H53.2812V119.555Z" fill="black"/>
<path d="M100.645 125.531H94.7285V131.506H100.645V125.531Z" fill="black"/>
<path d="M94.7187 125.531H88.8018V131.506H94.7187V125.531Z" fill="black"/>
<path d="M88.8022 125.531H82.8853V131.506H88.8022V125.531Z" fill="black"/>
<path d="M82.8852 125.531H76.9683V131.506H82.8852V125.531Z" fill="black"/>
<path d="M76.9584 125.531H71.0415V131.506H76.9584V125.531Z" fill="black"/>
<path d="M71.0414 125.531H65.1245V131.506H71.0414V125.531Z" fill="black"/>
<path d="M65.1249 125.531H59.208V131.506H65.1249V125.531Z" fill="black"/>
<path d="M59.1982 125.531H53.2812V131.506H59.1982V125.531Z" fill="black"/>
<path d="M53.2812 125.531H47.3643V131.506H53.2812V125.531Z" fill="black"/>
<path d="M100.645 131.504H94.7285V137.478H100.645V131.504Z" fill="black"/>
<path d="M65.1249 131.504H59.208V137.478H65.1249V131.504Z" fill="black"/>
<path d="M59.1982 131.504H53.2812V137.478H59.1982V131.504Z" fill="black"/>
<path d="M53.2812 131.504H47.3643V137.478H53.2812V131.504Z" fill="black"/>
<path d="M100.645 137.488H94.7285V143.463H100.645V137.488Z" fill="black"/>
<path d="M94.7187 137.488H88.8018V143.463H94.7187V137.488Z" fill="black"/>
<path d="M88.8022 137.488H82.8853V143.463H88.8022V137.488Z" fill="black"/>
<path d="M82.8852 137.488H76.9683V143.463H82.8852V137.488Z" fill="black"/>
<path d="M76.9584 137.488H71.0415V143.463H76.9584V137.488Z" fill="black"/>
<path d="M53.2812 137.488H47.3643V143.463H53.2812V137.488Z" fill="black"/>
<path d="M71.0414 143.465H65.1245V149.439H71.0414V143.465Z" fill="black"/>
<path d="M65.1249 143.465H59.208V149.439H65.1249V143.465Z" fill="black"/>
<path d="M59.1982 143.465H53.2812V149.439H59.1982V143.465Z" fill="black"/>
<path d="M94.7768 149.438H88.8599V155.412H94.7768V149.438Z" fill="black"/>
<path d="M94.7187 149.438H88.8018V155.412H94.7187V149.438Z" fill="black"/>
<path d="M88.8022 149.438H82.8853V155.412H88.8022V149.438Z" fill="black"/>
<path d="M82.8852 149.438H76.9683V155.412H82.8852V149.438Z" fill="black"/>
<path d="M59.0536 149.438H53.1367V155.412H59.0536V149.438Z" fill="black"/>
<path d="M94.7768 155.422H88.8599V161.396H94.7768V155.422Z" fill="black"/>
<path d="M76.9584 155.422H71.0415V161.396H76.9584V155.422Z" fill="black"/>
<path d="M71.0414 155.422H65.1245V161.396H71.0414V155.422Z" fill="black"/>
<path d="M65.1249 155.422H59.208V161.396H65.1249V155.422Z" fill="black"/>
<path d="M59.1982 155.422H53.2812V161.396H59.1982V155.422Z" fill="black"/>
<path d="M59.0536 155.422H53.1367V161.396H59.0536V155.422Z" fill="black"/>
<path d="M94.7768 161.395H88.8599V167.369H94.7768V161.395Z" fill="black"/>
<path d="M94.7187 161.395H88.8018V167.369H94.7187V161.395Z" fill="black"/>
<path d="M94.7187 143.52H88.8018V149.494H94.7187V143.52Z" fill="black"/>
<path d="M88.8022 161.395H82.8853V167.369H88.8022V161.395Z" fill="black"/>
<path d="M59.0536 161.395H53.1367V167.369H59.0536V161.395Z" fill="black"/>
<path d="M94.7187 167.371H88.8018V173.346H94.7187V167.371Z" fill="black"/>
<path d="M88.8022 167.371H82.8853V173.346H88.8022V167.371Z" fill="black"/>
<path d="M82.8852 167.371H76.9683V173.346H82.8852V167.371Z" fill="black"/>
<path d="M76.9584 167.371H71.0415V173.346H76.9584V167.371Z" fill="black"/>
<path d="M71.0414 167.371H65.1245V173.346H71.0414V167.371Z" fill="black"/>
<path d="M65.1249 167.371H59.208V173.346H65.1249V167.371Z" fill="black"/>
<path d="M59.1982 167.371H53.2812V173.346H59.1982V167.371Z" fill="black"/>
<path d="M94.7192 83.6914H88.8022V89.6658H94.7192V83.6914Z" fill="black"/>
<path d="M59.1982 83.6914H53.2812V89.6658H59.1982V83.6914Z" fill="black"/>
<path d="M94.7192 89.6641H88.8022V95.6385H94.7192V89.6641Z" fill="black"/>
<path d="M59.1982 89.6641H53.2812V95.6385H59.1982V89.6641Z" fill="black"/>
<path d="M88.8022 95.6406H82.8853V101.615H88.8022V95.6406Z" fill="black"/>
<path d="M65.1249 95.6406H59.208V101.615H65.1249V95.6406Z" fill="black"/>
<path d="M88.8022 101.625H82.8853V107.599H88.8022V101.625Z" fill="black"/>
<path d="M65.1249 101.625H59.208V107.599H65.1249V101.625Z" fill="black"/>
<path d="M82.8852 107.598H76.9683V113.572H82.8852V107.598Z" fill="black"/>
<path d="M76.9584 107.598H71.0415V113.572H76.9584V107.598Z" fill="black"/>
<path d="M71.0414 107.598H65.1245V113.572H71.0414V107.598Z" fill="black"/>
<path d="M82.8852 113.574H76.9683V119.549H82.8852V113.574Z" fill="black"/>
<path d="M71.0414 113.574H65.1245V119.549H71.0414V113.574Z" fill="black"/>
<path d="M82.8852 119.559H76.9683V125.533H82.8852V119.559Z" fill="black"/>
<path d="M71.0414 119.559H65.1245V125.533H71.0414V119.559Z" fill="black"/>
<path d="M94.7192 77.707H88.8022V83.6815H94.7192V77.707Z" fill="black"/>
<path d="M59.1982 77.707H53.2812V83.6815H59.1982V77.707Z" fill="black"/>
<path d="M94.6516 173.355H53.2812V179H94.6516V173.355Z" fill="black"/>
<path d="M71 131H53V138H71V131Z" fill="black"/>
</g>
<defs>
<clipPath id="clip0_1225_504">
<rect width="148" height="179" fill="white"/>
</clipPath>
</defs>
</svg>
