<svg width="83" height="74" viewBox="0 0 83 74" fill="none" xmlns="http://www.w3.org/2000/svg">
<g clip-path="url(#clip0_1225_10)">
<path d="M18.4449 0H9.22266V9.25H18.4449V0Z" fill="#171717"/>
<path d="M18.4449 37H9.22266V46.25H18.4449V37Z" fill="#171717"/>
<path d="M27.6666 0H18.4443V9.25H27.6666V0Z" fill="#171717"/>
<path d="M27.6666 46.25H18.4443V55.5H27.6666V46.25Z" fill="#171717"/>
<path d="M36.8892 9.25H27.667V18.5H36.8892V9.25Z" fill="#171717"/>
<path d="M36.8892 55.5H27.667V64.75H36.8892V55.5Z" fill="#171717"/>
<path d="M9.22222 18.5H0V27.75H9.22222V18.5Z" fill="#171717"/>
<path d="M9.22222 9.25H0V18.5H9.22222V9.25Z" fill="#171717"/>
<path d="M9.22222 27.75H0V37H9.22222V27.75Z" fill="#171717"/>
<path d="M73.7779 0H64.5557V9.25H73.7779V0Z" fill="#171717"/>
<path d="M73.7779 37H64.5557V46.25H73.7779V37Z" fill="#171717"/>
<path d="M64.5552 0H55.333V9.25H64.5552V0Z" fill="#171717"/>
<path d="M64.5552 9.25H55.333V18.5H64.5552V9.25Z" fill="#171717"/>
<path d="M64.5552 46.25H55.333V55.5H64.5552V46.25Z" fill="#171717"/>
<path d="M55.3336 9.25H46.1113V18.5H55.3336V9.25Z" fill="#171717"/>
<path d="M55.3336 55.5H46.1113V64.75H55.3336V55.5Z" fill="#171717"/>
<path d="M82.9996 18.5H73.7773V27.75H82.9996V18.5Z" fill="#171717"/>
<path d="M82.9996 9.25H73.7773V18.5H82.9996V9.25Z" fill="#171717"/>
<path d="M82.9996 27.75H73.7773V37H82.9996V27.75Z" fill="#171717"/>
<path d="M46.1109 18.5H36.8887V27.75H46.1109V18.5Z" fill="#171717"/>
<path d="M46.1109 64.75H36.8887V74H46.1109V64.75Z" fill="#171717"/>
</g>
<defs>
<clipPath id="clip0_1225_10">
<rect width="83" height="74" fill="white"/>
</clipPath>
</defs>
</svg>
