<svg width="123" height="156" viewBox="0 0 123 156" fill="none" xmlns="http://www.w3.org/2000/svg">
<g clip-path="url(#clip0_1238_58)">
<path d="M79.9146 34.2578H73.3066V40.93H79.9146V34.2578Z" fill="#1A1A1A"/>
<path d="M86.3042 40.4766H79.6963V47.1488H86.3042V40.4766Z" fill="#1A1A1A"/>
<path d="M73.0884 40.4766H66.4805V47.1488H73.0884V40.4766Z" fill="#1A1A1A"/>
<path d="M66.6988 40.4766H60.0908V47.1488H66.6988V40.4766Z" fill="#1A1A1A"/>
<path d="M60.3101 40.4766H53.7021V47.1488H60.3101V40.4766Z" fill="#1A1A1A"/>
<path d="M99.3013 40.4766H92.6934V47.1488H99.3013V40.4766Z" fill="#1A1A1A"/>
<path d="M105.91 40.4766H99.3018V47.1488H105.91V40.4766Z" fill="#1A1A1A"/>
<path d="M112.517 40.4766H105.909V47.1488H112.517V40.4766Z" fill="#1A1A1A"/>
<path d="M86.3042 53.5977H79.6963V60.2699H86.3042V53.5977Z" fill="#1A1A1A"/>
<path d="M86.3042 59.8281H79.6963V66.5004H86.3042V59.8281Z" fill="#1A1A1A"/>
<path d="M86.3042 66.0586H79.6963V72.7308H86.3042V66.0586Z" fill="#1A1A1A"/>
<path d="M86.3042 26.9102H79.6963V33.5824H86.3042V26.9102Z" fill="#1A1A1A"/>
<path d="M86.3042 20.2383H79.6963V26.9105H86.3042V20.2383Z" fill="#1A1A1A"/>
<path d="M86.3042 13.5664H79.6963V20.2386H86.3042V13.5664Z" fill="#1A1A1A"/>
<path d="M79.9146 46.9258H73.3066V53.598H79.9146V46.9258Z" fill="#1A1A1A"/>
<path d="M92.6939 46.9258H86.0859V53.598H92.6939V46.9258Z" fill="#1A1A1A"/>
<path d="M60.723 0H55.0625V5.71554H60.723V0Z" fill="#1A1A1A"/>
<path d="M60.723 4.95703H55.0625V10.6726H60.723V4.95703Z" fill="#1A1A1A"/>
<path d="M60.723 15.2578H55.0625V20.9734H60.723V15.2578Z" fill="#1A1A1A"/>
<path d="M60.723 20.9727H55.0625V26.6882H60.723V20.9727Z" fill="#1A1A1A"/>
<path d="M66.3831 9.53125H60.7227V15.2468H66.3831V9.53125Z" fill="#1A1A1A"/>
<path d="M55.6214 9.53125H49.9609V15.2468H55.6214V9.53125Z" fill="#1A1A1A"/>
<path d="M50.3372 9.53125H44.6768V15.2468H50.3372V9.53125Z" fill="#1A1A1A"/>
<path d="M71.4847 9.53125H65.8242V15.2468H71.4847V9.53125Z" fill="#1A1A1A"/>
<path d="M112.226 53.7578H106.565V59.4734H112.226V53.7578Z" fill="#1A1A1A"/>
<path d="M112.226 58.7266H106.565V64.4421H112.226V58.7266Z" fill="#1A1A1A"/>
<path d="M112.226 69.0156H106.565V74.7312H112.226V69.0156Z" fill="#1A1A1A"/>
<path d="M112.226 74.7305H106.565V80.446H112.226V74.7305Z" fill="#1A1A1A"/>
<path d="M117.899 63.3008H112.238V69.0163H117.899V63.3008Z" fill="#1A1A1A"/>
<path d="M107.136 63.3008H101.476V69.0163H107.136V63.3008Z" fill="#1A1A1A"/>
<path d="M101.853 63.3008H96.1924V69.0163H101.853V63.3008Z" fill="#1A1A1A"/>
<path d="M122.989 63.3008H117.328V69.0163H122.989V63.3008Z" fill="#1A1A1A"/>
<path d="M92.6939 34.2578H86.0859V40.93H92.6939V34.2578Z" fill="#1A1A1A"/>
<path d="M53.3496 56.6172H45.3447V64.6999H53.3496V56.6172Z" fill="#1A1A1A"/>
<path d="M53.3496 64.4297H45.3447V72.5124H53.3496V64.4297Z" fill="#1A1A1A"/>
<path d="M53.3496 71.9727H45.3447V80.0554H53.3496V71.9727Z" fill="#1A1A1A"/>
<path d="M53.3496 132.574H45.3447V140.657H53.3496V132.574Z" fill="#1A1A1A"/>
<path d="M53.3496 140.375H45.3447V148.458H53.3496V140.375Z" fill="#1A1A1A"/>
<path d="M53.3496 147.918H45.3447V156.001H53.3496V147.918Z" fill="#1A1A1A"/>
<path d="M45.4785 79.9219H37.4736V88.0046H45.4785V79.9219Z" fill="#1A1A1A"/>
<path d="M52.8154 79.9219H44.8105V88.0046H52.8154V79.9219Z" fill="#1A1A1A"/>
<path d="M60.9531 79.9219H52.9482V88.0046H60.9531V79.9219Z" fill="#1A1A1A"/>
<path d="M45.4785 87.4648H37.4736V95.5476H45.4785V87.4648Z" fill="#1A1A1A"/>
<path d="M52.8154 87.4648H44.8105V95.5476H52.8154V87.4648Z" fill="#1A1A1A"/>
<path d="M60.9531 87.4648H52.9482V95.5476H60.9531V87.4648Z" fill="#1A1A1A"/>
<path d="M45.4785 95.0078H37.4736V103.091H45.4785V95.0078Z" fill="#1A1A1A"/>
<path d="M37.6074 102.941H29.6025V111.024H37.6074V102.941Z" fill="#1A1A1A"/>
<path d="M31.205 102.941H23.2002V111.024H31.205V102.941Z" fill="#1A1A1A"/>
<path d="M23.4804 102.941H15.4756V111.024H23.4804V102.941Z" fill="#1A1A1A"/>
<path d="M15.7421 102.941H7.7373V111.024H15.7421V102.941Z" fill="#1A1A1A"/>
<path d="M8.00484 102.941H0V111.024H8.00484V102.941Z" fill="#1A1A1A"/>
<path d="M37.6074 95.3984H29.6025V103.481H37.6074V95.3984Z" fill="#1A1A1A"/>
<path d="M31.205 95.3984H23.2002V103.481H31.205V95.3984Z" fill="#1A1A1A"/>
<path d="M37.6074 110.484H29.6025V118.567H37.6074V110.484Z" fill="#1A1A1A"/>
<path d="M31.205 110.484H23.2002V118.567H31.205V110.484Z" fill="#1A1A1A"/>
<path d="M73.0878 102.941H65.083V111.024H73.0878V102.941Z" fill="#1A1A1A"/>
<path d="M80.8261 102.941H72.8213V111.024H80.8261V102.941Z" fill="#1A1A1A"/>
<path d="M88.5517 102.941H80.5469V111.024H88.5517V102.941Z" fill="#1A1A1A"/>
<path d="M94.9531 102.941H86.9482V111.024H94.9531V102.941Z" fill="#1A1A1A"/>
<path d="M66.6865 102.941H58.6816V111.024H66.6865V102.941Z" fill="#1A1A1A"/>
<path d="M73.0878 95.3984H65.083V103.481H73.0878V95.3984Z" fill="#1A1A1A"/>
<path d="M66.6865 95.3984H58.6816V103.481H66.6865V95.3984Z" fill="#1A1A1A"/>
<path d="M73.0878 110.484H65.083V118.567H73.0878V110.484Z" fill="#1A1A1A"/>
<path d="M66.6865 110.484H58.6816V118.567H66.6865V110.484Z" fill="#1A1A1A"/>
<path d="M52.0136 102.941H44.0088V111.024H52.0136V102.941Z" fill="#1A1A1A"/>
<path d="M45.6123 102.941H37.6074V111.024H45.6123V102.941Z" fill="#1A1A1A"/>
<path d="M60.0185 102.941H52.0137V111.024H60.0185V102.941Z" fill="#1A1A1A"/>
<path d="M52.8154 95.0078H44.8105V103.091H52.8154V95.0078Z" fill="#1A1A1A"/>
<path d="M60.9531 95.0078H52.9482V103.091H60.9531V95.0078Z" fill="#1A1A1A"/>
<path d="M45.4785 109.543H37.4736V117.626H45.4785V109.543Z" fill="#1A1A1A"/>
<path d="M52.8154 109.543H44.8105V117.626H52.8154V109.543Z" fill="#1A1A1A"/>
<path d="M60.9531 109.543H52.9482V117.626H60.9531V109.543Z" fill="#1A1A1A"/>
<path d="M45.4785 117.086H37.4736V125.169H45.4785V117.086Z" fill="#1A1A1A"/>
<path d="M52.8154 117.086H44.8105V125.169H52.8154V117.086Z" fill="#1A1A1A"/>
<path d="M60.9531 117.086H52.9482V125.169H60.9531V117.086Z" fill="#1A1A1A"/>
<path d="M45.4785 124.629H37.4736V132.712H45.4785V124.629Z" fill="#1A1A1A"/>
<path d="M52.8154 124.629H44.8105V132.712H52.8154V124.629Z" fill="#1A1A1A"/>
<path d="M60.9531 124.629H52.9482V132.712H60.9531V124.629Z" fill="#1A1A1A"/>
</g>
<defs>
<clipPath id="clip0_1238_58">
<rect width="123" height="156" fill="white"/>
</clipPath>
</defs>
</svg>
