<svg width="45" height="45" viewBox="0 0 45 45" fill="none" xmlns="http://www.w3.org/2000/svg">
<g clip-path="url(#clip0_1246_3669)">
<path d="M28.9282 41.7852H25.7139V44.9994H28.9282V41.7852Z" fill="white"/>
<path d="M25.7143 41.7852H22.5V44.9994H25.7143V41.7852Z" fill="white"/>
<path d="M22.5004 41.7852H19.2861V44.9994H22.5004V41.7852Z" fill="white"/>
<path d="M19.2856 41.7852H16.0713V44.9994H19.2856V41.7852Z" fill="white"/>
<path d="M35.3569 38.5703H32.1426V41.7846H35.3569V38.5703Z" fill="white"/>
<path d="M32.143 38.5703H28.9287V41.7846H32.143V38.5703Z" fill="white"/>
<path d="M16.0717 38.5703H12.8574V41.7846H16.0717V38.5703Z" fill="white"/>
<path d="M12.8569 38.5703H9.64258V41.7846H12.8569V38.5703Z" fill="white"/>
<path d="M38.5717 35.3555H35.3574V38.5698H38.5717V35.3555Z" fill="white"/>
<path d="M9.643 35.3555H6.42871V38.5698H9.643V35.3555Z" fill="white"/>
<path d="M41.7856 32.1445H38.5713V35.3588H41.7856V32.1445Z" fill="white"/>
<path d="M6.42815 32.1445H3.21387V35.3588H6.42815V32.1445Z" fill="white"/>
<path d="M41.7856 28.9297H38.5713V32.144H41.7856V28.9297Z" fill="white"/>
<path d="M6.42815 28.9297H3.21387V32.144H6.42815V28.9297Z" fill="white"/>
<path d="M45.0004 25.7148H41.7861V28.9291H45.0004V25.7148Z" fill="white"/>
<path d="M28.9291 27.9609H25.7148V31.1752H28.9291V27.9609Z" fill="white"/>
<path d="M25.7143 27.9609H22.5V31.1752H25.7143V27.9609Z" fill="white"/>
<path d="M22.4994 27.9609H19.2852V31.1752H22.4994V27.9609Z" fill="white"/>
<path d="M19.2866 27.9609H16.0723V31.1752H19.2866V27.9609Z" fill="white"/>
<path d="M3.21429 25.7148H0V28.9291H3.21429V25.7148Z" fill="white"/>
<path d="M45.0004 22.5H41.7861V25.7143H45.0004V22.5Z" fill="white"/>
<path d="M32.142 24.75H28.9277V27.9643H32.142V24.75Z" fill="white"/>
<path d="M16.0717 24.75H12.8574V27.9643H16.0717V24.75Z" fill="white"/>
<path d="M3.21429 22.5H0V25.7143H3.21429V22.5Z" fill="white"/>
<path d="M45.0004 19.2852H41.7861V22.4994H45.0004V19.2852Z" fill="white"/>
<path d="M3.21429 19.2852H0V22.4994H3.21429V19.2852Z" fill="white"/>
<path d="M45.0004 16.0703H41.7861V19.2846H45.0004V16.0703Z" fill="white"/>
<path d="M32.143 16.0703H28.9287V19.2846H32.143V16.0703Z" fill="white"/>
<path d="M16.0717 16.0703H12.8574V19.2846H16.0717V16.0703Z" fill="white"/>
<path d="M3.21429 16.0703H0V19.2846H3.21429V16.0703Z" fill="white"/>
<path d="M41.7856 12.8555H38.5713V16.0698H41.7856V12.8555Z" fill="white"/>
<path d="M32.143 12.8555H28.9287V16.0698H32.143V12.8555Z" fill="white"/>
<path d="M16.0717 12.8555H12.8574V16.0698H16.0717V12.8555Z" fill="white"/>
<path d="M6.42815 12.8555H3.21387V16.0698H6.42815V12.8555Z" fill="white"/>
<path d="M41.7856 9.64453H38.5713V12.8588H41.7856V9.64453Z" fill="white"/>
<path d="M6.42815 9.64453H3.21387V12.8588H6.42815V9.64453Z" fill="white"/>
<path d="M38.5717 6.42969H35.3574V9.64397H38.5717V6.42969Z" fill="white"/>
<path d="M9.643 6.42969H6.42871V9.64397H9.643V6.42969Z" fill="white"/>
<path d="M35.3569 3.21484H32.1426V6.42913H35.3569V3.21484Z" fill="white"/>
<path d="M32.143 3.21484H28.9287V6.42913H32.143V3.21484Z" fill="white"/>
<path d="M16.0717 3.21484H12.8574V6.42913H16.0717V3.21484Z" fill="white"/>
<path d="M12.8569 3.21484H9.64258V6.42913H12.8569V3.21484Z" fill="white"/>
<path d="M28.9282 0H25.7139V3.21429H28.9282V0Z" fill="white"/>
<path d="M25.7143 0H22.5V3.21429H25.7143V0Z" fill="white"/>
<path d="M22.5004 0H19.2861V3.21429H22.5004V0Z" fill="white"/>
<path d="M19.2856 0H16.0713V3.21429H19.2856V0Z" fill="white"/>
</g>
<defs>
<clipPath id="clip0_1246_3669">
<rect width="45" height="45" fill="white"/>
</clipPath>
</defs>
</svg>
