<svg width="30" height="48" viewBox="0 0 30 48" fill="none" xmlns="http://www.w3.org/2000/svg">
<path d="M13.3389 45.2939H12.0176V47.208H9.24414V45.2939H5.02539V39.7412H13.3389V45.2939ZM18.9004 44.4248H18.9062V39.7412H24.4473V45.2939H20.2305V47.208H17.457V45.2939H16.127V39.7412H18.9004V44.4248ZM16.1191 45.2939H13.3457V39.7412H16.1191V45.2939ZM12.0762 38.4111H9.30273V35.6279H12.0762V38.4111ZM24.4121 34.1025H21.6797V35.4775H20.3447V38.251H17.5713V35.4678H18.9062V32.6943H21.6387V31.3193H24.4121V34.1025ZM5.30664 31.3193H8.07227V32.8389H10.5723V35.6221H7.79883V34.1025H5.29883V32.833H2.5332V30.0498H5.30664V31.3193ZM27.2207 32.833H24.4473V30.0498H27.2207V32.833ZM2.77344 27.2607H3.90137V30.0439H1.12793V27.4189H0V24.6357H2.77344V27.2607ZM30 27.4189H28.7012V30.0439H25.9277V27.2607H27.2266V24.6357H30V27.4189ZM13.4072 23.2959H16.0098V20.5342H18.7832V26.0791H16.1777V28.7314H13.4043V26.0791H10.6338V20.5342H13.4072V23.2959ZM3.90137 24.626H1.12793V21.8428H3.90137V24.626ZM28.5977 24.626H25.8242V21.8428H28.5977V24.626ZM7.79883 16.2871H6.53613V19.0449H5.01758V21.8223H2.24414V19.0381H3.7627V16.2607H5.02539V13.5039H7.79883V16.2871ZM24.4473 16.2607H25.9297V19.0381H27.2207V21.8223H24.4473V19.0449H23.1562V16.2871H21.6738V13.5039H24.4473V16.2607ZM16.1191 17.7412H18.7832V20.5254H10.6338V17.7412H13.3457V13.5039H16.1191V17.7412ZM9.30371 13.498H6.53027V10.7148H9.30371V13.498ZM16.1191 13.498H13.3457V10.7148H16.1191V13.498ZM23.0244 13.498H20.251V10.7148H23.0244V13.498ZM13.3389 5.15039H11.959V7.91211H10.5723V10.6855H7.79883V7.90234H9.18555V5.12891H10.5654V2.36719H13.3389V5.15039ZM16.1191 0V10.6855H13.3457V0H16.1191ZM18.9004 5.12891H20.3447V7.90234H21.6797V10.6855H18.9062V7.91211H17.5713V5.15039H16.127V2.36719H18.9004V5.12891Z" fill="white"/>
</svg>
