<svg width="48" height="33" viewBox="0 0 48 33" fill="none" xmlns="http://www.w3.org/2000/svg">
<path d="M23.9863 32.0986H19.4111V24.9922H23.9863V32.0986ZM9.14941 24.5244H11.4258V28.1338H6.85059V24.5596H4.57324V20.9502H9.14941V24.5244ZM43.4229 24.5596H41.1221V28.1338H36.5469V24.5244H38.8477V20.9502H43.4229V24.5596ZM28.5625 10.7119H26.2871V21.3955H23.9863V24.9893H19.4111V21.3799H21.7119V10.6885H23.9863V3.61621H28.5625V10.7119ZM11.4258 7.57715H9.14941V11.0674H6.84863V13.7568H4.5752V17.334H6.84863V20.9434H2.27344V17.3613H0V13.752H2.27344V10.1475H4.57324V7.45801H6.85059V3.96777H11.4258V7.57715ZM41.1221 7.45801H43.4229V10.1475H45.7002V13.752H48V17.3613H45.7002V20.9434H41.125V17.334H43.4248V13.7568H41.125V11.0674H38.8477V7.57715H36.5469V3.96777H41.1221V7.45801ZM28.5625 3.60938H23.9863V0H28.5625V3.60938Z" fill="white"/>
</svg>
