<svg width="42" height="50" viewBox="0 0 42 50" fill="none" xmlns="http://www.w3.org/2000/svg">
<path d="M26.1442 0H24.0625V2.10198H26.1442V0Z" fill="white"/>
<path d="M26.1442 1.82422H24.0625V3.9262H26.1442V1.82422Z" fill="white"/>
<path d="M26.1442 5.59766H24.0625V7.69964H26.1442V5.59766Z" fill="white"/>
<path d="M26.1442 7.70312H24.0625V9.80511H26.1442V7.70312Z" fill="white"/>
<path d="M28.2204 3.47656H26.1387V5.57855H28.2204V3.47656Z" fill="white"/>
<path d="M24.2643 3.47656H22.1826V5.57855H24.2643V3.47656Z" fill="white"/>
<path d="M22.3171 3.47656H20.2354V5.57855H22.3171V3.47656Z" fill="white"/>
<path d="M30.1022 3.47656H28.0205V5.57855H30.1022V3.47656Z" fill="white"/>
<path d="M38.0436 14.2852H35.9619V16.3871H38.0436V14.2852Z" fill="white"/>
<path d="M38.0436 16.1289H35.9619V18.2309H38.0436V16.1289Z" fill="white"/>
<path d="M38.0436 19.9102H35.9619V22.0121H38.0436V19.9102Z" fill="white"/>
<path d="M38.0436 22.0039H35.9619V24.1059H38.0436V22.0039Z" fill="white"/>
<path d="M40.1266 17.8203H38.0449V19.9223H40.1266V17.8203Z" fill="white"/>
<path d="M36.1677 17.8203H34.0859V19.9223H36.1677V17.8203Z" fill="white"/>
<path d="M34.2243 17.8203H32.1426V19.9223H34.2243V17.8203Z" fill="white"/>
<path d="M41.9997 17.8203H39.918V19.9223H41.9997V17.8203Z" fill="white"/>
<path d="M19.6226 12.4766H16.6787V15.4491H19.6226V12.4766Z" fill="white"/>
<path d="M19.6226 15.3867H16.6787V18.3593H19.6226V15.3867Z" fill="white"/>
<path d="M19.6226 18.1289H16.6787V21.1015H19.6226V18.1289Z" fill="white"/>
<path d="M19.6226 40.418H16.6787V43.3905H19.6226V40.418Z" fill="white"/>
<path d="M19.6226 43.2969H16.6787V46.2694H19.6226V43.2969Z" fill="white"/>
<path d="M19.6226 46.0742H16.6787V49.0468H19.6226V46.0742Z" fill="white"/>
<path d="M16.7281 21.0586H13.7842V24.0311H16.7281V21.0586Z" fill="white"/>
<path d="M19.4302 21.0586H16.4863V24.0311H19.4302V21.0586Z" fill="white"/>
<path d="M22.4185 21.0586H19.4746V24.0311H22.4185V21.0586Z" fill="white"/>
<path d="M16.7281 23.8438H13.7842V26.8163H16.7281V23.8438Z" fill="white"/>
<path d="M19.4302 23.8438H16.4863V26.8163H19.4302V23.8438Z" fill="white"/>
<path d="M22.4185 23.8438H19.4746V26.8163H22.4185V23.8438Z" fill="white"/>
<path d="M16.7281 26.6055H13.7842V29.578H16.7281V26.6055Z" fill="white"/>
<path d="M13.8335 29.5312H10.8896V32.5038H13.8335V29.5312Z" fill="white"/>
<path d="M11.481 29.5312H8.53711V32.5038H11.481V29.5312Z" fill="white"/>
<path d="M8.63335 29.5312H5.68945V32.5038H8.63335V29.5312Z" fill="white"/>
<path d="M5.7896 29.5312H2.8457V32.5038H5.7896V29.5312Z" fill="white"/>
<path d="M2.9439 29.5312H0V32.5038H2.9439V29.5312Z" fill="white"/>
<path d="M13.8335 26.7461H10.8896V29.7186H13.8335V26.7461Z" fill="white"/>
<path d="M11.481 26.7461H8.53711V29.7186H11.481V26.7461Z" fill="white"/>
<path d="M13.8335 32.3008H10.8896V35.2733H13.8335V32.3008Z" fill="white"/>
<path d="M11.481 32.3008H8.53711V35.2733H11.481V32.3008Z" fill="white"/>
<path d="M26.8785 29.5312H23.9346V32.5038H26.8785V29.5312Z" fill="white"/>
<path d="M29.7291 29.5312H26.7852V32.5038H29.7291V29.5312Z" fill="white"/>
<path d="M32.5669 29.5312H29.623V32.5038H32.5669V29.5312Z" fill="white"/>
<path d="M34.9224 29.5312H31.9785V32.5038H34.9224V29.5312Z" fill="white"/>
<path d="M24.525 29.5312H21.5811V32.5038H24.525V29.5312Z" fill="white"/>
<path d="M26.8785 26.7461H23.9346V29.7186H26.8785V26.7461Z" fill="white"/>
<path d="M24.525 26.7461H21.5811V29.7186H24.525V26.7461Z" fill="white"/>
<path d="M26.8785 32.3008H23.9346V35.2733H26.8785V32.3008Z" fill="white"/>
<path d="M24.525 32.3008H21.5811V35.2733H24.525V32.3008Z" fill="white"/>
<path d="M19.1353 29.5312H16.1914V32.5038H19.1353V29.5312Z" fill="white"/>
<path d="M16.7779 29.5312H13.834V32.5038H16.7779V29.5312Z" fill="white"/>
<path d="M22.0796 29.5312H19.1357V32.5038H22.0796V29.5312Z" fill="white"/>
<path d="M19.4302 26.6055H16.4863V29.578H19.4302V26.6055Z" fill="white"/>
<path d="M22.4185 26.6055H19.4746V29.578H22.4185V26.6055Z" fill="white"/>
<path d="M16.7281 31.9688H13.7842V34.9413H16.7281V31.9688Z" fill="white"/>
<path d="M19.4302 31.9688H16.4863V34.9413H19.4302V31.9688Z" fill="white"/>
<path d="M22.4185 31.9688H19.4746V34.9413H22.4185V31.9688Z" fill="white"/>
<path d="M16.7281 34.7422H13.7842V37.7147H16.7281V34.7422Z" fill="white"/>
<path d="M19.4302 34.7422H16.4863V37.7147H19.4302V34.7422Z" fill="white"/>
<path d="M22.4185 34.7422H19.4746V37.7147H22.4185V34.7422Z" fill="white"/>
<path d="M16.7281 37.5039H13.7842V40.4765H16.7281V37.5039Z" fill="white"/>
<path d="M19.4302 37.5039H16.4863V40.4765H19.4302V37.5039Z" fill="white"/>
<path d="M22.4185 37.5039H19.4746V40.4765H22.4185V37.5039Z" fill="white"/>
</svg>
