<svg width="43" height="38" viewBox="0 0 43 38" fill="none" xmlns="http://www.w3.org/2000/svg">
<g clip-path="url(#clip0_1245_6)">
<path d="M9.55512 0H4.77734V4.75H9.55512V0Z" fill="white"/>
<path d="M9.55512 19H4.77734V23.75H9.55512V19Z" fill="white"/>
<path d="M14.3334 0H9.55566V4.75H14.3334V0Z" fill="white"/>
<path d="M14.3334 23.75H9.55566V28.5H14.3334V23.75Z" fill="white"/>
<path d="M19.1108 4.75H14.333V9.5H19.1108V4.75Z" fill="white"/>
<path d="M19.1108 28.5H14.333V33.25H19.1108V28.5Z" fill="white"/>
<path d="M4.77778 9.5H0V14.25H4.77778V9.5Z" fill="white"/>
<path d="M4.77778 4.75H0V9.5H4.77778V4.75Z" fill="white"/>
<path d="M4.77778 14.25H0V19H4.77778V14.25Z" fill="white"/>
<path d="M38.2221 0H33.4443V4.75H38.2221V0Z" fill="white"/>
<path d="M38.2221 19H33.4443V23.75H38.2221V19Z" fill="white"/>
<path d="M33.4448 0H28.667V4.75H33.4448V0Z" fill="white"/>
<path d="M33.4448 4.75H28.667V9.5H33.4448V4.75Z" fill="white"/>
<path d="M33.4448 23.75H28.667V28.5H33.4448V23.75Z" fill="white"/>
<path d="M28.6664 4.75H23.8887V9.5H28.6664V4.75Z" fill="white"/>
<path d="M28.6664 28.5H23.8887V33.25H28.6664V28.5Z" fill="white"/>
<path d="M43.0004 9.5H38.2227V14.25H43.0004V9.5Z" fill="white"/>
<path d="M43.0004 4.75H38.2227V9.5H43.0004V4.75Z" fill="white"/>
<path d="M43.0004 14.25H38.2227V19H43.0004V14.25Z" fill="white"/>
<path d="M23.8891 9.5H19.1113V14.25H23.8891V9.5Z" fill="white"/>
<path d="M23.8891 33.25H19.1113V38H23.8891V33.25Z" fill="white"/>
</g>
<defs>
<clipPath id="clip0_1245_6">
<rect width="43" height="38" fill="white"/>
</clipPath>
</defs>
</svg>
