<?xml version="1.0" encoding="UTF-8"?>
<svg id="_圖層_1" data-name="圖層_1" xmlns="http://www.w3.org/2000/svg" version="1.1" viewBox="0 0 24 24">
  <!-- Generator: Adobe Illustrator 29.8.3, SVG Export Plug-In . SVG Version: 2.1.1 Build 3)  -->
  <defs>
    <style>
      .st0 {
        fill: none;
      }
    </style>
  </defs>
  <rect class="st0" x="32.69" y="-3.5" width="20.78" height="20.78"/>
  <g>
    <path d="M15.38,21.99h-1.67v1.67h1.67v-1.67Z"/>
    <path d="M13.7,21.99h-1.67v1.67h1.67v-1.67Z"/>
    <path d="M12.03,21.99h-1.67v1.67h1.67v-1.67Z"/>
    <path d="M10.35,21.99h-1.67v1.67h1.67v-1.67Z"/>
    <path d="M18.73,20.32h-1.67v1.67h1.67v-1.67Z"/>
    <path d="M17.05,20.32h-1.67v1.67h1.67v-1.67Z"/>
    <path d="M8.68,20.32h-1.67v1.67h1.67v-1.67Z"/>
    <path d="M7,20.32h-1.67v1.67h1.67v-1.67Z"/>
    <path d="M20.4,18.64h-1.67v1.67h1.67v-1.67Z"/>
    <path d="M5.33,18.64h-1.67v1.67h1.67v-1.67Z"/>
    <path d="M22.08,16.97h-1.67v1.67h1.67v-1.67Z"/>
    <path d="M3.65,16.97h-1.67v1.67h1.67v-1.67Z"/>
    <path d="M22.08,15.29h-1.67v1.67h1.67v-1.67Z"/>
    <path d="M3.65,15.29h-1.67v1.67h1.67v-1.67Z"/>
    <path d="M23.75,13.62h-1.67v1.67h1.67v-1.67Z"/>
    <path d="M15.38,14.79h-1.67v1.67h1.67v-1.67Z"/>
    <path d="M13.7,14.79h-1.67v1.67h1.67v-1.67Z"/>
    <path d="M12.03,14.79h-1.67v1.67h1.67v-1.67Z"/>
    <path d="M10.35,14.79h-1.67v1.67h1.67v-1.67Z"/>
    <path d="M1.98,13.62H.31v1.67h1.67v-1.67Z"/>
    <path d="M23.75,11.94h-1.67v1.67h1.67v-1.67Z"/>
    <path d="M17.05,13.12h-1.67v1.67h1.67v-1.67Z"/>
    <path d="M8.68,13.12h-1.67v1.67h1.67v-1.67Z"/>
    <path d="M1.98,11.94H.31v1.67h1.67v-1.67Z"/>
    <path d="M23.75,10.27h-1.67v1.67h1.67v-1.67Z"/>
    <path d="M1.98,10.27H.31v1.67h1.67v-1.67Z"/>
    <path d="M23.75,8.59h-1.67v1.67h1.67v-1.67Z"/>
    <path d="M17.05,8.59h-1.67v1.67h1.67v-1.67Z"/>
    <path d="M8.68,8.59h-1.67v1.67h1.67v-1.67Z"/>
    <path d="M1.98,8.59H.31v1.67h1.67v-1.67Z"/>
    <path d="M22.08,6.92h-1.67v1.67h1.67v-1.67Z"/>
    <path d="M17.05,6.92h-1.67v1.67h1.67v-1.67Z"/>
    <path d="M8.68,6.92h-1.67v1.67h1.67v-1.67Z"/>
    <path d="M3.65,6.92h-1.67v1.67h1.67v-1.67Z"/>
    <path d="M22.08,5.25h-1.67v1.67h1.67v-1.67Z"/>
    <path d="M3.65,5.25h-1.67v1.67h1.67v-1.67Z"/>
    <path d="M20.4,3.57h-1.67v1.67h1.67v-1.67Z"/>
    <path d="M5.33,3.57h-1.67v1.67h1.67v-1.67Z"/>
    <path d="M18.73,1.9h-1.67v1.67h1.67v-1.67Z"/>
    <path d="M17.05,1.9h-1.67v1.67h1.67v-1.67Z"/>
    <path d="M8.68,1.9h-1.67v1.67h1.67v-1.67Z"/>
    <path d="M7,1.9h-1.67v1.67h1.67v-1.67Z"/>
    <path d="M15.38.22h-1.67v1.67h1.67V.22Z"/>
    <path d="M13.7.22h-1.67v1.67h1.67V.22Z"/>
    <path d="M12.03.22h-1.67v1.67h1.67V.22Z"/>
    <path d="M10.35.22h-1.67v1.67h1.67V.22Z"/>
  </g>
</svg>