<svg width="78" height="99" viewBox="0 0 78 99" fill="none" xmlns="http://www.w3.org/2000/svg">
<path d="M41.6006 72.9482H52.002V78.1602H57.2031V83.3721H62.3975V88.5771H67.5986V72.9482H72.7988V88.5771H78V99H0V88.5771H5.20117V72.9482H10.4014V88.5771H20.7969V83.3721H25.998V78.1602H31.1992V67.7373H41.6006V72.9482ZM15.6025 72.9482H10.4014V67.7373H15.6025V72.9482ZM67.5986 72.9482H62.3975V67.7373H67.5986V72.9482ZM20.8037 36.4746H25.998V31.2627H52.002V36.4746H57.1963V31.2627H62.3975V36.4746H57.2031V41.6855H52.002V46.8975H46.8008V52.1094H41.6006V57.3203H36.3994V52.1094H31.1992V57.3203H25.998V62.5254H20.8037V67.7373H15.6025V62.5254H20.7969V57.3145H25.998V52.1094H31.1992V46.8975H25.998V41.6855H20.7969V36.4746H15.6025V31.2627H20.8037V36.4746ZM52.002 57.3145H57.2031V62.5254H62.3975V67.7373H57.1963V62.5254H52.002V57.3203H46.8008V52.1094H52.002V57.3145ZM15.6025 31.2627H10.4014V26.0518H15.6025V31.2627ZM67.5986 31.2627H62.3975V26.0518H67.5986V31.2627ZM78 0V10.4229H72.7988V26.0518H67.5986V10.4229H10.4014V26.0518H5.20117V10.4229H0V0H78Z" fill="white"/>
</svg>
