<svg width="124" height="118" viewBox="0 0 124 118" fill="none" xmlns="http://www.w3.org/2000/svg">
<g clip-path="url(#clip0_1371_95)">
<path d="M118.737 0V5.18612C118.737 5.20852 118.918 5.36533 118.963 5.41014C120.63 5.45494 122.341 5.51468 124 5.3728V14.8527H119.001C118.974 14.8527 118.843 14.9983 118.828 15.0543C118.877 15.2485 118.737 15.5882 118.737 15.7114V25.2286H114.039C114.02 25.2286 113.802 25.4489 113.787 25.5049C113.749 25.658 113.859 25.785 113.847 25.9306C113.836 26.0762 113.776 26.0613 113.776 26.0837V40.8243H108.927C108.912 40.8243 108.739 40.9961 108.739 41.011V56.1997H103.815C103.796 56.1997 103.552 56.4424 103.552 56.4611V71.6498H98.7027C98.6877 71.6498 98.5146 71.8215 98.5146 71.8365V87.1745H93.6658C93.6395 87.1745 93.3912 87.421 93.4025 87.5106C93.1994 92.4428 93.4063 97.4086 93.3912 102.352L93.2784 102.464C93 102.539 92.7329 102.404 92.4659 102.397C91.3073 102.36 90.1637 102.501 89.0013 102.479C88.7117 102.472 88.5537 102.292 88.2829 102.509C88.012 102.725 88.0647 102.785 88.0647 102.811V112.777H83.5168C83.498 112.777 83.2535 113.019 83.2535 113.038V118H78.2166V113.038C78.2166 113.019 77.9721 112.777 77.9533 112.777H73.3302V108.113C73.3302 108.076 73.097 107.777 73.0669 107.777H67.9924V102.74C67.9924 102.613 67.5823 102.419 67.4319 102.404C66.1002 102.247 64.4338 102.643 63.0646 102.483C62.9555 102.472 62.8727 102.475 62.805 102.367V97.2182C62.805 97.1995 62.5718 97.0315 62.5417 97.0315H57.6176V92.2188C57.6176 92.159 57.3769 91.9985 57.2829 92.0284C55.7406 92.1702 54.0591 91.8155 52.5394 91.9537C52.3513 91.9723 51.9789 92.062 51.9789 92.2934V102.408H46.6787C46.6599 102.408 46.4154 102.651 46.4154 102.669V107.669L46.3025 107.781H36.714C36.6952 104.26 36.7366 100.739 36.714 97.2182C36.714 97.024 36.635 96.8411 36.6312 96.6283C36.5974 90.098 36.6989 83.5528 36.5974 77.0338C36.556 76.989 36.3943 76.8098 36.3717 76.8098H26.0308L25.9518 74.7562C25.9894 73.946 26.1437 72.8595 26.0346 72.0642C25.9255 71.269 25.8615 71.6573 25.7675 71.6573H15.4266V66.7698C15.4266 66.1874 13.5232 66.5047 13.1358 66.5122C10.5402 66.557 7.93714 66.4935 5.34911 66.4338V61.6957C5.34911 61.6211 5.08579 61.3597 5.01056 61.3597H0V56.659H4.99927C5.25507 56.659 5.32278 55.7853 5.33782 55.5762C5.42434 54.303 5.11212 52.8693 5.25883 51.6185C5.27011 51.5102 5.26635 51.428 5.37544 51.3608H15.152C15.1709 51.3608 15.4154 51.1181 15.4154 51.0995V46.2121L25.76 46.2905C25.9443 46.3427 26.3205 46.1187 26.3205 45.9507V41.138H36.1347C36.3228 41.138 36.3867 40.2643 36.4018 40.0589C36.4845 38.7111 36.3679 37.2586 36.3228 35.9145H46.2875C46.3288 35.9145 46.5169 35.7838 46.5395 35.7166C46.5621 35.6494 46.626 35.2312 46.626 35.2051V30.8404H56.8164C56.8916 30.8404 57.155 30.579 57.155 30.5044V25.8783L57.2791 25.7775C57.5725 25.6767 57.9223 25.8447 58.1744 25.8447C61.1875 25.8074 64.242 25.8634 67.2701 25.8447C67.3905 25.8783 67.7554 25.658 67.7554 25.5833V20.6959H77.7953C78.1113 20.6959 77.9796 19.9791 77.9796 19.8409C77.9871 18.3026 78.0473 16.783 78.0586 15.2484H87.9481C87.9669 15.2484 88.2114 15.0058 88.2114 14.9871V10.3984H98.0256C98.1008 10.3984 98.3642 10.137 98.3642 10.0623V5.47361H108.555C108.573 5.47361 108.818 5.23092 108.818 5.21225V0H118.745H118.737ZM108.81 20.6735H113.885C114.054 20.6735 114.28 20.3002 114.227 20.1172V10.4058C114.208 9.93912 113.512 9.94659 113.136 9.92045C111.643 9.82338 110.108 9.99513 108.626 10.0026C107.091 10.0101 105.462 9.89805 103.962 10.0026C103.792 10.0138 103.608 9.91672 103.469 9.95406C103.33 9.99139 103.096 10.2191 103.096 10.2565V14.8452H93.2821C93.2596 14.8452 93.0527 15.058 93.0339 15.1215C93.0151 15.185 92.9436 15.6741 92.9436 15.704V20.0687H82.9789C82.7005 20.0687 82.6554 20.8565 82.6403 21.0768C82.5463 22.4209 82.708 23.8621 82.6403 25.2174H72.9014C72.8825 25.2174 72.638 25.4601 72.638 25.4788V30.5156H62.3724C62.3536 30.5156 62.1091 30.7583 62.1091 30.7769V35.5897H51.6178C51.599 35.5897 51.3544 35.8324 51.3544 35.851V40.7385L41.8073 40.7758L41.6192 40.9625C41.5478 42.553 41.3935 44.1884 41.5816 45.7752L41.4537 45.9507C39.2757 45.9507 37.0977 45.988 34.9197 45.9656C33.7949 45.9544 32.595 45.779 31.4589 45.8835C30.3229 45.988 30.8232 45.988 30.8232 46.1486V51.1854H20.4823C20.4523 51.1854 20.219 51.4841 20.219 51.5214V56.1848H10.2543C10.1189 56.3005 10.0851 56.4275 10.0663 56.5955C9.93083 57.7343 10.0023 59.1157 10.0663 60.2545C10.1302 61.3933 9.91579 61.7107 10.4048 61.7107H20.219C20.2717 62.9764 20.1476 64.2944 20.219 65.5527C20.2905 66.8109 20.2755 66.3778 20.3244 66.5682C20.3733 66.7586 20.4711 66.7848 20.5538 66.7848H30.8194V71.5228C30.8194 71.5602 31.0527 71.8589 31.0828 71.8589H46.6862L46.611 76.709C46.2611 76.6492 45.9263 76.7687 45.5991 76.7874C44.4555 76.8471 42.9847 76.638 41.9089 76.7799C41.7546 76.7986 41.6456 76.821 41.5891 76.9853C41.48 82.4813 41.5891 87.9623 41.5778 93.4696C41.5778 94.276 41.544 95.0302 41.5778 95.8517C41.5929 96.2362 41.4199 97.1697 41.8524 97.2929L46.8367 97.2705C46.8818 97.2294 47.0624 97.0689 47.0624 97.0464V87.1559H51.9112C51.93 87.1559 52.1557 87.0102 52.1783 86.9729L52.3212 82.3021L57.2076 82.3767V86.8161C57.2076 86.8348 57.4521 87.0775 57.4709 87.0775H62.395V92.4129C62.395 92.4316 62.6395 92.6743 62.6583 92.6743H67.5823C67.6087 93.828 67.5485 94.9929 67.5823 96.1466C67.5861 96.3258 67.6613 96.4864 67.6689 96.6656C67.6801 96.9344 67.4432 97.2294 67.7403 97.4833C68.0676 97.7633 69.4933 97.5281 69.9522 97.5206C70.9152 97.5057 71.8819 97.5356 72.8449 97.5281C72.8525 97.7148 72.9164 97.894 72.9277 98.0807C73.0142 99.3912 72.7584 101.019 72.9202 102.266C73.0067 102.935 73.8192 102.606 74.2367 102.595C75.5007 102.565 76.7721 102.625 78.036 102.595V107.632C78.036 107.665 78.3407 107.945 78.4461 107.934C79.7476 107.874 81.0604 107.874 82.362 107.889C82.52 107.889 82.6742 107.971 82.8059 107.964C82.9375 107.956 83.2234 107.777 83.2234 107.706V97.5169C84.1375 97.5318 85.0553 97.4982 85.9694 97.5169C86.8835 97.5356 87.7976 97.7559 88.1173 97.4908C88.1775 97.4422 88.3355 97.1622 88.3355 97.1099V82.4439H93.2596C93.2784 82.4439 93.5229 82.2012 93.5229 82.1826V66.8819L93.6357 66.7698H98.4469C98.7892 66.4002 98.5522 65.8401 98.714 65.3921L98.7065 51.5139C98.9623 51.3048 99.2406 51.4691 99.4964 51.4729C100.181 51.4729 100.854 51.4094 101.528 51.3907C101.96 51.3795 103.401 51.4766 103.672 51.3534C103.71 51.3347 103.898 51.148 103.898 51.1294V35.9406C105.297 35.7502 106.899 36.1087 108.299 35.9406C108.423 35.9257 108.784 35.795 108.784 35.6793V20.6399L108.81 20.6735Z" fill="white"/>
<path d="M103.397 20.6719V30.5251H98.6235C98.5897 30.5251 98.285 30.8836 98.285 30.9358V35.5992H93.4362C93.4061 35.5992 93.1729 35.8979 93.1729 35.9353V40.748C92.0857 40.8301 90.9911 40.8488 89.8964 40.8264C89.5428 40.8189 88.6137 40.5987 88.3579 40.86C88.1021 41.1214 88.2112 41.8009 88.2074 41.9801C88.1736 43.1899 88.4332 44.5116 88.2902 45.7176C88.2789 45.8258 88.2827 45.908 88.1736 45.9752H83.5505V41.1624C83.5505 41.1326 83.4075 40.9384 83.3624 40.9011C83.084 40.6547 82.9712 40.8301 82.6853 40.8301C81.2371 40.8264 79.8076 40.7368 78.3594 40.7517L78.4346 35.9017H88.0231C88.2639 35.9017 88.3692 35.0242 88.3692 34.8189C88.373 33.6166 88.2676 32.3733 88.294 31.1673C88.294 31.059 88.3767 30.9433 88.3617 30.8238H93.2105C93.3045 30.8238 93.3873 30.5886 93.4023 30.4915C93.5754 29.2258 93.2895 27.5568 93.3948 26.2314C93.5001 24.9059 93.4399 25.9625 93.4738 25.8244H98.2474C98.2662 25.8244 98.5107 25.5817 98.5107 25.563V20.6756H103.397V20.6719Z" fill="white"/>
<path d="M67.6012 66.8008H62.79V76.7287H67.6012V66.8008Z" fill="white"/>
<path d="M78.0548 51.4258V61.3537H73.2437L73.3189 51.4258H78.0548Z" fill="white"/>
<path d="M62.4137 77.0273V82.1014L57.5649 82.1761C57.4521 82.1462 57.6025 82.0118 57.6025 81.9894V77.0273H62.4137Z" fill="white"/>
<path d="M67.9775 61.7642C68.049 61.5364 69.4672 61.7045 69.7493 61.6485H72.8677L72.943 66.5769H67.9813V61.7642H67.9775Z" fill="white"/>
<path d="M52.0354 66.8008V71.6509H46.9985L47.0738 66.8008H52.0354Z" fill="white"/>
<path d="M72.9426 46.2773C72.9802 46.3035 72.8674 46.3744 72.8674 46.3894V51.2021H68.0938L67.981 51.0901V46.2773H72.9426Z" fill="white"/>
<path d="M57.298 61.7266H52.4116V66.5766H57.298V61.7266Z" fill="white"/>
<path d="M83.1671 46.2773V51.2021H78.356L78.4312 46.2773H83.1671Z" fill="white"/>
<path d="M67.6012 51.4258V56.2759H62.9029L62.79 56.1638V51.5378L62.9029 51.4258H67.6012Z" fill="white"/>
<path d="M77.9796 41.1211C77.9382 41.2182 78.0548 41.3414 78.0548 41.3825V45.9712H73.2437L73.3189 41.1211H77.9796Z" fill="white"/>
<path d="M62.4137 56.6484H57.6025V61.4238H62.4137V56.6484Z" fill="white"/>
</g>
<defs>
<clipPath id="clip0_1371_95">
<rect width="124" height="118" fill="white"/>
</clipPath>
</defs>
</svg>
