<svg width="48" height="48" viewBox="0 0 48 48" fill="none" xmlns="http://www.w3.org/2000/svg">
<g clip-path="url(#clip0_1069_3)">
<path d="M19.4001 21.3C19.8001 21 20.1001 20.5 20.1001 19.8C20.1001 19.1 19.8001 18.5 19.2001 18.3C18.7001 18.1 18.0001 18 17.2001 18H13.6001V21.7H17.6001C18.3001 21.7 18.9001 21.6 19.4001 21.3Z" fill="#222221"/>
<path d="M31.0002 21.8008C30.2002 21.8008 29.5002 22.0008 29.1002 22.5008C28.6002 23.0008 28.4002 23.6008 28.2002 24.4008H33.7002C33.7002 23.5008 33.4002 22.9008 32.8002 22.5008C32.3002 22.1008 31.7002 21.8008 30.9002 21.8008H31.0002Z" fill="#222221"/>
<path d="M19.4001 24.8C19.0001 24.6 18.5001 24.5 17.7001 24.5H13.6001V28.9H17.6001C18.3001 28.9 18.9001 28.9 19.3001 28.6C20.0001 28.2 20.4001 27.5 20.4001 26.5C20.4001 25.5 20.0001 25 19.3001 24.7L19.4001 24.8Z" fill="#222221"/>
<path d="M39 0H8.5C3.8 0 0 3.8 0 8.5V39C0 43.7 3.8 47.5 8.5 47.5H39C43.7 47.5 47.5 43.7 47.5 39V8.5C47.5 3.8 43.7 0 39 0ZM27.2 16.2H34.4V17.9H27.2V16.2ZM23.2 29.4C22.9 29.9 22.5 30.4 22 30.7C21.5 31.1 20.8 31.4 20.1 31.5C19.4 31.7 18.6 31.7 17.8 31.7H10.3V15.2H18.3C20.3 15.2 21.8 15.8 22.6 17C23.1 17.7 23.4 18.6 23.4 19.5C23.4 20.4 23.1 21.3 22.6 21.9C22.3 22.2 21.9 22.6 21.3 22.8C22.1 23.1 22.8 23.6 23.2 24.3C23.6 25 23.8 25.8 23.8 26.7C23.8 27.6 23.6 28.6 23.1 29.3L23.2 29.4ZM37.1 26.6H28.2C28.2 27.8 28.7 28.7 29.5 29.2C30 29.5 30.6 29.7 31.3 29.7C32 29.7 32.6 29.5 33.1 29.1C33.3 28.9 33.6 28.6 33.8 28.3H37.1C37.1 29 36.6 29.8 35.9 30.5C34.8 31.7 33.3 32.3 31.3 32.3C29.3 32.3 28.2 31.8 27 30.8C25.8 29.8 25.1 28.2 25.1 25.9C25.1 23.6 25.7 22.1 26.8 21C27.9 19.9 29.4 19.3 31.2 19.3C33 19.3 33.2 19.5 34.1 19.9C35 20.3 35.7 20.9 36.2 21.7C36.7 22.4 37 23.3 37.2 24.2C37.2 24.8 37.3 25.6 37.3 26.6H37.1Z" fill="#222221"/>
</g>
<defs>
<clipPath id="clip0_1069_3">
<rect width="47.4" height="47.4" fill="white"/>
</clipPath>
</defs>
</svg>
