<svg width="48" height="48" viewBox="0 0 48 48" fill="none" xmlns="http://www.w3.org/2000/svg">
<g clip-path="url(#clip0_1072_2)">
<path d="M39 0H8.5C3.8 0 0 3.8 0 8.5V39C0 43.7 3.8 47.5 8.5 47.5H39C43.7 47.5 47.5 43.7 47.5 39V8.5C47.5 3.8 43.7 0 39 0ZM25.9 30C24.2 30 22.5 29.1 21.9 28C21.9 28 21 31.7 20.8 32.4C20.1 34.9 18 37.5 17.9 37.7C17.8 37.8 17.5 37.7 17.5 37.7C17.5 37.4 16.9 34.2 17.5 31.6C17.8 30.3 19.6 22.8 19.6 22.8C19.6 22.8 19.1 21.8 19.1 20.2C19.1 17.8 20.5 16 22.2 16C23.9 16 24.4 17.1 24.4 18.4C24.4 19.7 23.5 22.1 23 24.1C22.6 25.8 23.9 27.2 25.6 27.2C28.7 27.2 30.7 23.3 30.7 18.6C30.7 13.9 28.3 12.4 24 12.4C19.7 12.4 16 16.1 16 20.1C16 24.1 16.4 22.5 17.1 23.3C17.4 23.7 17.4 23.8 17.3 24.2C17.3 24.5 17 25.2 17 25.5C16.9 25.9 16.6 26.1 16.2 25.9C13.9 25 12.9 22.5 12.9 19.7C12.9 15.1 16.8 9.6 24.5 9.6C32.2 9.6 34.7 14.1 34.7 18.9C34.7 23.7 31.2 30 26 30H25.9Z" fill="#222221"/>
</g>
<defs>
<clipPath id="clip0_1072_2">
<rect width="47.4" height="47.4" fill="white"/>
</clipPath>
</defs>
</svg>
