<svg width="50" height="50" viewBox="0 0 50 50" fill="none" xmlns="http://www.w3.org/2000/svg">
<path d="M10.6133 17.0996L14.25 20.7373L14.5488 27.4619L3.91602 37.9668H0V17.0996H10.6133ZM49.3271 34.0166V37.9658H34.0674L0 3.75391V0H15.373L49.3271 34.0166ZM49.3271 12.6455L39.9238 21.9678L38.1865 20.2617L38.2295 11.7705H34.4883V0H49.3271V12.6455Z" fill="white"/>
<path d="M39.1898 42.737C38.471 42.4182 37.6305 42.2559 36.6567 42.2559C35.6829 42.2559 35.7061 42.2964 35.2772 42.3834C34.854 42.4587 34.4657 42.5805 34.1063 42.737C33.7527 42.8877 33.4339 43.0789 33.1441 43.2992C32.8659 43.5195 32.6282 43.7803 32.4369 44.0701C32.2399 44.3541 32.0949 44.6729 31.9906 45.0207C31.8921 45.3627 31.8457 45.7279 31.8457 46.1278C31.8457 46.9219 32.0428 47.6117 32.4427 48.1913C32.8369 48.771 33.3933 49.2115 34.1121 49.5245C34.8367 49.8375 35.6829 49.994 36.6567 49.994C37.6305 49.994 37.6015 49.9534 38.0247 49.8665C38.4478 49.7911 38.8362 49.6752 39.1956 49.5245C39.5549 49.3622 39.8795 49.1709 40.1578 48.9507C40.436 48.7304 40.6736 48.4754 40.8649 48.1913C41.0678 47.9015 41.2185 47.5827 41.3113 47.2407C41.4098 46.893 41.4562 46.522 41.4562 46.122C41.4562 45.3279 41.2591 44.644 40.8591 44.0643C40.4708 43.4847 39.9143 43.0442 39.1898 42.7312V42.737ZM39.2941 46.8176C39.2361 47.0263 39.155 47.2176 39.0449 47.3914C38.9347 47.5653 38.7956 47.7218 38.6391 47.861C38.4884 47.9943 38.3029 48.1102 38.0942 48.2029C37.8914 48.2957 37.6711 48.3652 37.4277 48.4116C37.19 48.458 36.935 48.487 36.6567 48.487C36.1061 48.487 35.625 48.3942 35.2076 48.2029C34.7961 48.0175 34.4831 47.745 34.257 47.3914C34.0367 47.0379 33.9208 46.6147 33.9208 46.1278C33.9208 45.6409 33.9498 45.6467 34.002 45.4381C34.0599 45.2294 34.1411 45.0381 34.2512 44.8642C34.3613 44.6903 34.5005 44.5396 34.657 44.4063C34.8193 44.2672 34.999 44.1513 35.2018 44.0643C35.4047 43.9658 35.625 43.8962 35.8684 43.8441C36.1119 43.7977 36.3727 43.7687 36.6509 43.7687C37.2074 43.7687 37.6885 43.8615 38.0884 44.0527C38.5 44.2382 38.813 44.5106 39.0391 44.8642C39.2593 45.212 39.3753 45.6351 39.3753 46.1278C39.3753 46.6205 39.3463 46.6031 39.2941 46.8176Z" fill="white"/>
<path d="M6.54995 47.4896L2.24321 42.4004H0V49.8487H1.79689V44.7653L6.10363 49.8487H8.35844V42.4004H6.54995V47.4896Z" fill="white"/>
<path d="M15.865 46.5448C15.865 46.939 15.7839 47.2867 15.6158 47.5881C15.4535 47.878 15.2158 48.104 14.897 48.2663C14.584 48.4286 14.1957 48.504 13.7377 48.504C13.2798 48.504 12.8973 48.4228 12.5669 48.2663C12.2423 48.0982 11.9872 47.8722 11.8075 47.5766C11.6336 47.2751 11.5467 46.9274 11.5467 46.5332V42.4004H9.55273V46.5216C9.55273 47.2809 9.72083 47.9185 10.0512 48.4286C10.3932 48.9387 10.8685 49.3271 11.4829 49.5995C12.0974 49.8661 12.8219 49.9936 13.6624 49.9936C14.5029 49.9936 15.2216 49.8603 15.8129 49.5995C16.4099 49.3271 16.8678 48.9329 17.1808 48.4228C17.4996 47.9069 17.6619 47.2751 17.6619 46.5216V42.4004H15.865V46.5448Z" fill="white"/>
<path d="M41.7344 42.4004V43.9017H44.876V49.8487H46.87V43.9017H50.0001V42.4004H41.7344Z" fill="white"/>
<path d="M30.1648 43.3742C29.8054 43.0554 29.3822 42.812 28.9011 42.6555C28.42 42.4874 27.9042 42.4062 27.3477 42.4062H22.3164V49.8546H27.3477C27.794 49.8546 28.2114 49.8024 28.6113 49.6981C29.0055 49.588 29.3706 49.4315 29.7068 49.2286C30.043 49.0199 30.3271 48.7649 30.5647 48.4693C30.8082 48.1678 30.9936 47.8259 31.127 47.4375C31.2603 47.0491 31.324 46.6144 31.324 46.1333C31.324 45.6522 31.2197 45.0146 31.011 44.5567C30.8082 44.093 30.5299 43.6988 30.1648 43.38V43.3742ZM29.1272 46.9622C29.0518 47.1999 28.9417 47.4027 28.791 47.5766C28.6519 47.7505 28.4896 47.8954 28.2983 48.0055C28.1186 48.1157 27.9215 48.2026 27.7013 48.2548C27.4926 48.3128 27.2781 48.3359 27.0637 48.3359H24.2988V43.9133H27.0637C27.3361 43.9133 27.5969 43.9539 27.8578 44.0408C28.1128 44.122 28.3505 44.2553 28.5592 44.435C28.7736 44.6089 28.9417 44.8407 29.0576 45.1247C29.1852 45.403 29.2431 45.7392 29.2431 46.1275C29.2431 46.5159 29.2026 46.7188 29.1156 46.9622H29.1272Z" fill="white"/>
<path d="M18.9414 44.0701H19.4515L19.4457 45.496H19.6833L20.9759 44.1918V42.4297H18.9414V44.0701Z" fill="white"/>
</svg>
