<?xml version="1.0" encoding="UTF-8"?>
<svg id="_圖層_1" data-name="圖層_1" xmlns="http://www.w3.org/2000/svg" version="1.1" viewBox="0 0 126 90">
  <!-- Generator: Adobe Illustrator 29.8.3, SVG Export Plug-In . SVG Version: 2.1.1 Build 3)  -->
  <defs>
    <style>
      .st0 {
        fill: #fff;
      }
    </style>
  </defs>
  <path class="st0" d="M18,0h-9v9h9V0Z"/>
  <path class="st0" d="M27,0h-9v9h9V0Z"/>
  <path class="st0" d="M36,0h-9v9h9V0Z"/>
  <path class="st0" d="M45,0h-9v9h9V0Z"/>
  <path class="st0" d="M54,0h-9v9h9V0Z"/>
  <path class="st0" d="M63,0h-9v9h9V0Z"/>
  <path class="st0" d="M72,0h-9v9h9V0Z"/>
  <path class="st0" d="M81,0h-9v9h9V0Z"/>
  <path class="st0" d="M90,0h-9v9h9V0Z"/>
  <path class="st0" d="M99,0h-9v9h9V0Z"/>
  <path class="st0" d="M108,0h-9v9h9V0Z"/>
  <path class="st0" d="M117,0h-9v9h9V0Z"/>
  <path class="st0" d="M9,9H0v9h9v-9Z"/>
  <path class="st0" d="M126,9h-9v9h9v-9Z"/>
  <path class="st0" d="M9,18H0v9h9v-9Z"/>
  <path class="st0" d="M27,18h-9v9h9v-9Z"/>
  <path class="st0" d="M108,18h-9v9h9v-9Z"/>
  <path class="st0" d="M126,18h-9v9h9v-9Z"/>
  <path class="st0" d="M9,27H0v9h9v-9Z"/>
  <path class="st0" d="M36,27h-9v9h9v-9Z"/>
  <path class="st0" d="M99,27h-9v9h9v-9Z"/>
  <path class="st0" d="M126,27h-9v9h9v-9Z"/>
  <path class="st0" d="M9,36H0v9h9v-9Z"/>
  <path class="st0" d="M45,36h-9v9h9v-9Z"/>
  <path class="st0" d="M90,36h-9v9h9v-9Z"/>
  <path class="st0" d="M126,36h-9v9h9v-9Z"/>
  <path class="st0" d="M9,45H0v9h9v-9Z"/>
  <path class="st0" d="M36,45h-9v9h9v-9Z"/>
  <path class="st0" d="M54,45h-9v9h9v-9Z"/>
  <path class="st0" d="M81,45h-9v9h9v-9Z"/>
  <path class="st0" d="M99,45h-9v9h9v-9Z"/>
  <path class="st0" d="M126,45h-9v9h9v-9Z"/>
  <path class="st0" d="M9,54H0v9h9v-9Z"/>
  <path class="st0" d="M27,54h-9v9h9v-9Z"/>
  <path class="st0" d="M63,54h-9v9h9v-9Z"/>
  <path class="st0" d="M72,54h-9v9h9v-9Z"/>
  <path class="st0" d="M108,54h-9v9h9v-9Z"/>
  <path class="st0" d="M126,54h-9v9h9v-9Z"/>
  <path class="st0" d="M9,63H0v9h9v-9Z"/>
  <path class="st0" d="M126,63h-9v9h9v-9Z"/>
  <path class="st0" d="M9,72H0v9h9v-9Z"/>
  <path class="st0" d="M126,72h-9v9h9v-9Z"/>
  <path class="st0" d="M18,81h-9v9h9v-9Z"/>
  <path class="st0" d="M27,81h-9v9h9v-9Z"/>
  <path class="st0" d="M36,81h-9v9h9v-9Z"/>
  <path class="st0" d="M45,81h-9v9h9v-9Z"/>
  <path class="st0" d="M54,81h-9v9h9v-9Z"/>
  <path class="st0" d="M63,81h-9v9h9v-9Z"/>
  <path class="st0" d="M72,81h-9v9h9v-9Z"/>
  <path class="st0" d="M81,81h-9v9h9v-9Z"/>
  <path class="st0" d="M90,81h-9v9h9v-9Z"/>
  <path class="st0" d="M99,81h-9v9h9v-9Z"/>
  <path class="st0" d="M108,81h-9v9h9v-9Z"/>
  <path class="st0" d="M117,81h-9v9h9v-9Z"/>
</svg>