<svg width="387" height="68" viewBox="0 0 387 68" fill="none" xmlns="http://www.w3.org/2000/svg">
<g clip-path="url(#clip0_315_33)">
<path d="M50.3 65.8001L14.4 29.2001V65.7001H0V12.6001H15.6L51.5 49.3001V12.6001H65.8V65.8001H50.2H50.3Z" fill="white"/>
<path d="M143.3 55.4001C142 57.7001 140 59.8001 137.4 61.6001C134.8 63.4001 131.5 64.7001 127.5 65.8001C123.6 66.8001 119 67.3001 113.7 67.3001C108.4 67.3001 103.8 66.8001 99.9001 65.8001C95.9001 64.8001 92.6001 63.4001 90.0001 61.6001C87.4001 59.8001 85.4001 57.8001 84.1001 55.4001C82.8001 53.0001 82.1001 50.5001 82.1001 47.9001V12.6001H96.4001V42.7001C96.4001 44.5001 96.6001 46.2001 97.1001 47.8001C97.6001 49.4001 98.4001 50.8001 99.7001 52.0001C101 53.2001 102.7 54.1001 105 54.8001C107.3 55.5001 110.2 55.8001 113.8 55.8001C117.4 55.8001 120.3 55.5001 122.6 54.8001C124.8 54.1001 126.6 53.2001 127.8 52.0001C129.1 50.8001 129.9 49.4001 130.3 47.8001C130.7 46.2001 131 44.5001 131 42.7001V12.6001H145.4V47.9001C145.4 50.6001 144.7 53.1001 143.4 55.4001H143.3Z" fill="white"/>
<path d="M240.3 39.2001C240.3 42.6001 239.9 45.6001 239.2 48.3001C238.5 50.9001 237.4 53.2001 236 55.2001C234.6 57.2001 233 58.8001 231.1 60.2001C229.2 61.6001 227.1 62.7001 224.8 63.5001C222.5 64.3001 220 64.9001 217.3 65.3001C214.6 65.7001 211.8 65.9001 208.9 65.9001H175.1V12.6001H208.8C211.7 12.6001 214.5 12.8001 217.2 13.2001C219.9 13.6001 222.4 14.2001 224.7 15.0001C227 15.8001 229.2 16.9001 231.1 18.3001C233 19.7001 234.6 21.3001 236 23.3001C237.4 25.3001 238.4 27.6001 239.2 30.2001C239.9 32.8001 240.3 35.8001 240.3 39.2001ZM225.8 39.2001C225.8 36.6001 225.5 34.4001 224.8 32.5001C224.1 30.6001 223.1 29.1001 221.6 27.8001C220.1 26.6001 218.2 25.7001 215.9 25.1001C213.6 24.5001 210.7 24.2001 207.3 24.2001H189.5V54.2001H207.3C210.7 54.2001 213.5 53.9001 215.9 53.3001C218.2 52.7001 220.2 51.8001 221.6 50.5001C223.1 49.2001 224.1 47.7001 224.8 45.8001C225.5 43.9001 225.8 41.7001 225.8 39.1001V39.2001Z" fill="white"/>
<path d="M322.2 39.2002C322.2 43.8002 321.4 47.8002 319.7 51.3002C318 54.8002 315.6 57.7002 312.5 60.1002C309.4 62.4002 305.6 64.2002 301.1 65.4002C296.6 66.6002 291.6 67.2002 286.1 67.2002C280.6 67.2002 275.5 66.6002 271.1 65.4002C266.6 64.2002 262.8 62.4002 259.7 60.1002C256.6 57.8002 254.1 54.8002 252.4 51.3002C250.7 47.8002 249.8 43.8002 249.8 39.2002C249.8 34.6002 250.7 30.6002 252.4 27.1002C254.1 23.6002 256.5 20.7002 259.7 18.3002C262.8 16.0002 266.7 14.2002 271.1 13.0002C275.6 11.8002 280.6 11.2002 286.1 11.2002C291.6 11.2002 296.7 11.8002 301.1 13.0002C305.6 14.2002 309.3 16.0002 312.5 18.3002C315.6 20.6002 318 23.6002 319.7 27.1002C321.4 30.6002 322.2 34.6002 322.2 39.2002ZM307.7 39.2002C307.7 37.2002 307.4 35.2002 306.8 33.3002C306.2 31.3002 305 29.6002 303.4 28.0002C301.8 26.4002 299.6 25.1002 296.8 24.2002C294 23.2002 290.5 22.7002 286.2 22.7002C281.9 22.7002 280.8 22.9002 278.6 23.4002C276.4 23.9002 274.5 24.5002 272.9 25.3002C271.3 26.1002 270 27.0002 268.9 28.1002C267.8 29.2002 267 30.3002 266.3 31.5002C265.7 32.7002 265.2 34.0002 264.9 35.3002C264.6 36.6002 264.5 37.9002 264.5 39.2002C264.5 40.5002 264.6 41.8002 264.9 43.2002C265.2 44.5002 265.6 45.8002 266.3 47.1002C266.9 48.3002 267.8 49.5002 268.9 50.5002C270 51.5002 271.3 52.5002 272.9 53.3002C274.5 54.1002 276.4 54.7002 278.6 55.2002C280.8 55.7002 283.3 55.9002 286.2 55.9002C290.5 55.9002 294.1 55.4002 296.8 54.4002C299.6 53.4002 301.8 52.1002 303.4 50.6002C305 49.0002 306.1 47.3002 306.8 45.3002C307.4 43.3002 307.7 41.3002 307.7 39.4002V39.2002Z" fill="white"/>
<path d="M364.4 24.2001V65.8001H350V24.2001H327.4V12.6001H386.9V24.2001H364.3H364.4Z" fill="white"/>
<path d="M152.4 12.6H156.4L156.3 23.5L158.1 23.4L168 13.5V0H152.4V12.6Z" fill="white"/>
</g>
<defs>
<clipPath id="clip0_315_33">
<rect width="387" height="67.2" fill="white"/>
</clipPath>
</defs>
</svg>
